<svg width="84" height="280" viewBox="0 0 84 280" fill="none" xmlns="http://www.w3.org/2000/svg">
<path d="M83.5917 144.085C83.4266 150.791 83.2648 152.102 80.6498 155.699C78.0308 159.298 76.7226 163.225 75.7407 160.935C74.7587 158.645 77.8677 154.227 77.8677 151.447C77.8677 148.667 78.6859 143.267 76.5595 143.431C74.4325 143.594 74.4325 149.974 72.7954 151.774C71.1604 153.574 71.8155 148.667 72.1424 145.558C72.4706 142.451 72.9484 139.779 74.1063 136.886C74.7594 135.252 76.4092 132.932 76.8581 132.277C76.8689 132.275 76.881 132.275 76.8918 132.274C76.1531 129.523 72.753 116.926 71.1766 112.036C69.4014 106.532 65.3171 86.6468 65.3171 82.3853C65.3171 82.3853 62.9198 85.8475 62.3874 89.3986C61.855 92.9497 62.9198 108.219 62.5647 111.238C62.5647 111.238 66.6482 135.74 66.471 138.758C66.2937 141.777 69.4896 163.438 67.0034 174.624C64.5178 185.81 62.5646 195.575 63.0971 198.771C63.6295 201.967 66.6482 213.685 64.5172 220.077C62.4649 226.234 57.4472 251.013 57.0833 252.816L57.1487 252.835C57.1487 252.835 58.688 267.158 60.3163 268.582C61.9446 270.008 65.2025 275.098 61.1311 276.524C57.0583 277.95 57.2626 279.578 51.9679 279.984C46.6752 280.393 48.3029 272.655 47.8965 270.008C47.4881 267.36 46.471 263.9 47.0816 261.661C47.6923 259.42 48.0158 258.552 48.6264 255.499C49.1804 252.734 50.0377 251.197 50.1974 250.928C50.2345 247.93 50.1017 242.166 48.7147 238.01C46.7615 232.15 47.6492 215.283 49.4251 210.844C51.201 206.406 46.2291 190.426 45.1636 185.277C44.098 180.128 42.1455 149.234 42.8552 142.132H40.7478C41.4581 149.234 39.5049 180.128 38.4394 185.277C37.3739 190.426 32.4027 206.406 34.1779 210.844C35.9531 215.283 36.8414 232.15 34.8883 238.01C33.5033 242.166 33.3685 247.93 33.4076 250.928C33.5653 251.197 34.4253 252.734 34.9773 255.499C35.5879 258.552 35.9114 259.42 36.522 261.661C37.1326 263.9 36.1156 267.361 35.7092 270.008C35.3008 272.655 36.9304 280.393 31.6364 279.984C26.3437 279.578 26.5459 277.95 22.4745 276.524C18.4017 275.099 21.6597 270.008 23.288 268.582C24.9177 267.158 26.4557 252.835 26.4557 252.835L26.523 252.816C26.1591 251.013 21.1394 226.234 19.0872 220.077C16.9568 213.685 19.9748 201.967 20.5079 198.771C21.0403 195.575 19.0872 185.81 16.6016 174.624C14.116 163.438 17.3119 141.777 17.134 138.758C16.9568 135.74 21.0403 111.238 21.0403 111.238C20.6851 108.219 21.7507 92.9497 21.2176 89.3986C20.6851 85.8475 18.2879 82.3853 18.2879 82.3853C18.2879 86.6468 14.2043 106.532 12.4284 112.036C10.852 116.926 7.45184 129.524 6.71318 132.274C6.72396 132.276 6.73608 132.276 6.74687 132.277C7.1964 132.932 8.8456 135.252 9.49867 136.886C10.6565 139.778 11.1337 142.45 11.4626 145.558C11.7895 148.667 12.4446 153.574 10.8095 151.774C9.17248 149.974 9.17246 143.594 7.04543 143.431C4.9184 143.267 5.73662 148.667 5.73662 151.447C5.73662 154.228 8.84562 158.645 7.86366 160.935C6.88169 163.225 5.57349 159.298 2.95446 155.699C0.339473 152.102 0.177729 150.792 0.0126072 144.085C-0.0938792 139.702 0.497194 135.321 0.91977 132.809H0.888095C0.888095 132.809 1.77571 126.062 1.06535 118.428C0.354989 110.793 2.84059 93.9256 2.84059 93.9256C2.84059 93.9256 4.43854 81.1418 5.50408 76.7031C6.56962 72.2644 4.26129 66.938 5.50408 60.3682C6.74687 53.7984 11.5408 50.248 15.0919 49.1824C18.643 48.1169 31.782 41.3698 32.8468 38.1739C33.5835 35.9633 33.5552 31.7166 33.4682 29.3072C32.7296 28.1123 32.0657 26.6336 31.5238 24.8044C28.5126 23.5846 26.1618 17.25 28.2106 15.6924C28.9668 15.1169 29.597 14.9787 30.0998 15.0461C29.8902 6.93897 33.1818 3.15197 36.3818 1.38348C39.7199 -0.46116 43.7287 -0.46116 47.0668 1.38348C50.2661 3.15197 53.5585 6.93897 53.3489 15.0461C53.8516 14.9787 54.4818 15.1169 55.238 15.6924C57.2869 17.2493 54.9361 23.5846 51.9248 24.8044C51.424 26.4947 50.8201 27.8865 50.1455 29.0302C50.1435 29.0302 50.1455 29.0322 50.1455 29.0322C50.0498 31.381 49.9912 35.8784 50.7561 38.1746C51.8217 41.3705 64.9599 48.1176 68.511 49.1831C72.0622 50.2486 76.8561 53.7991 78.0989 60.3689C79.3417 66.9387 77.0333 72.2651 78.0989 76.7038C79.1644 81.1425 80.7624 93.9263 80.7624 93.9263C80.7624 93.9263 83.248 110.794 82.5376 118.428C81.8273 126.063 82.7149 132.81 82.7149 132.81H82.6832C83.1071 135.321 83.6982 139.701 83.5917 144.085Z" fill="#31485E" fill-opacity="0.8"/>
</svg>
