<svg width="112" height="100" viewBox="0 0 112 100" fill="none" xmlns="http://www.w3.org/2000/svg">
<rect width="111.313" height="100" rx="10" fill="#EBEDFC"/>
<rect x="0.5" y="0.5" width="110.313" height="99" rx="9.5" stroke="#414073" stroke-opacity="0.11"/>
<path d="M45.0792 58.0093C49.7675 58.0093 53.5681 54.2087 53.5681 49.5205C53.5681 44.8322 49.7675 41.0316 45.0792 41.0316C40.3909 41.0316 36.5903 44.8322 36.5903 49.5205C36.5903 54.2087 40.3909 58.0093 45.0792 58.0093Z" fill="#352103"/>
<path d="M98.2604 99H14C14.3602 97.4308 14.7078 95.9469 15.043 94.5484C17.4986 84.2941 19.2267 78.7118 19.2267 78.7118C19.5057 76.9379 20.1568 75.2431 21.1372 73.7387C23.0406 70.8492 25.539 69.8038 25.539 69.8038L31.5125 67.9431L43.3289 64.2666C44.065 64.0374 44.7539 63.6777 45.3626 63.2047C45.4765 63.1146 45.5878 63.0245 45.6945 62.9273C46.262 62.4216 46.7347 61.8188 47.0906 61.1471C47.3513 60.6614 47.5466 60.1433 47.6714 59.6064V59.604C47.6857 59.5448 47.6975 59.4855 47.7117 59.4239C47.7379 59.3054 47.7592 59.1845 47.7757 59.0612C47.7852 58.9996 47.7947 58.938 47.7994 58.8763C47.8207 58.7033 47.835 58.5279 47.8397 58.3525C47.842 58.279 47.8444 58.2031 47.8444 58.1297V49.5322H63.9204V58.1297C63.9216 59.0874 64.1362 60.0329 64.5487 60.8972C64.9612 61.7616 65.5612 62.5231 66.3051 63.1264C66.3193 63.1383 66.3335 63.1501 66.3501 63.162C66.971 63.6562 67.6784 64.0307 68.4361 64.2666L81.9354 68.4693L86.2259 69.8038C87.3954 70.3598 88.446 71.1375 89.3193 72.0937C90.9951 73.8762 92.0215 76.0309 92.5524 77.3867C92.5691 77.4318 92.5881 77.4768 92.6046 77.5195C92.6259 77.5764 92.6474 77.6309 92.6662 77.683C92.9009 78.3159 93.0075 78.7118 93.0075 78.7118H93.036C93.036 78.7118 93.0527 78.7663 93.0858 78.8753C93.375 79.8259 94.8992 84.9436 96.9969 93.6287C97.3976 95.2903 97.8188 97.0808 98.2604 99Z" fill="#F8D197"/>
<path d="M53.9434 58.6781C59.6769 57.6787 63.9206 51.036 63.9206 51.036C63.9206 51.036 58.2345 50.5678 54.6784 49.5317H47.8446V58.1304C47.844 58.6267 47.7859 59.1213 47.6714 59.6042L47.6712 59.6131C47.6712 59.6131 48.2098 59.6775 53.9434 58.6781Z" fill="#D8A353"/>
<path d="M98.2604 99H14.0995C14.4551 97.4521 14.798 95.9888 15.1283 94.61V94.6077C17.5722 84.4197 19.2883 78.8754 19.2883 78.8754C19.5777 77.0338 20.2689 75.2785 21.3126 73.734C23.2018 70.9725 25.6007 69.9674 25.6007 69.9674L31.5125 67.9431L45.3626 63.2047L45.6423 63.1099L55.6312 82.2342L66.3051 63.1265L66.3691 63.1099L81.9354 68.4693L86.2899 69.9674C87.4024 70.4951 88.4071 71.2249 89.2529 72.1197C90.9383 73.8572 91.9883 75.9906 92.5525 77.3868C92.5691 77.4318 92.5881 77.4768 92.6046 77.5195C92.6259 77.5764 92.6474 77.6309 92.6662 77.6831C92.8487 78.1548 92.965 78.5151 93.0242 78.7118C93.055 78.8185 93.0717 78.8754 93.0717 78.8754H93.0977C93.0977 78.8754 94.7025 84.0618 97.0183 93.624C97.4212 95.2856 97.8432 97.0776 98.2841 99" fill="#FF8767"/>
<path d="M28.0327 96.1104L27.9995 98.9999H27.8573L28.0327 96.1104Z" fill="#FFAA29"/>
<path d="M83.8555 98.9999H83.7133L83.6801 96.1104L83.8555 98.9999Z" fill="#FFAA29"/>
<path d="M68.2753 91.4066H79.4039C79.4039 91.4066 76.0833 96.0355 68.2753 91.4066Z" fill="#FF7450"/>
<path d="M57.089 99H54.4248C53.4918 93.6273 53.8361 88.1105 55.4297 82.8955L55.6312 82.2342L55.7829 82.6964C57.5091 87.9496 57.9569 93.5389 57.089 99Z" fill="#FFCABC"/>
<path d="M69.1031 33.0757C68.7457 33.006 68.3775 33.0146 68.0238 33.1008C66.7643 24.4055 61.5385 17.8846 55.2803 17.8846C49.0047 17.8846 43.7664 24.4413 42.5256 33.1729C42.1029 33.0264 41.6492 32.9929 41.2096 33.0757C39.2717 33.461 38.1647 36.1064 38.7368 38.9844C39.289 41.7617 41.203 43.7339 43.0778 43.5227C44.918 50.3385 49.5454 55.1437 54.2167 56.3589C54.5672 56.4247 54.9245 56.4459 55.2803 56.4221C55.563 56.4454 55.8475 56.4319 56.1267 56.3821C61.3523 54.9838 65.8059 50.3297 67.5394 43.5384C69.3128 43.5176 71.0536 41.6113 71.5759 38.9844C72.1481 36.1064 71.041 33.461 69.1031 33.0757Z" fill="#F8D197"/>
<path d="M58.1169 42.1476C57.3124 42.963 56.2487 43.4724 55.1091 43.5881C55.1445 43.594 55.18 43.5969 55.2154 43.5999H55.0029C55.0383 43.5969 55.0737 43.594 55.1091 43.5881C53.9881 43.4762 52.9397 42.9822 52.1397 42.189L58.1169 42.1476Z" fill="#D8A353"/>
<path d="M52.5175 31.9111C51.8783 32.0909 51.2207 32.1982 50.5575 32.2309C50.2333 32.2517 49.91 32.2581 49.5874 32.2558L49.1155 32.2465C48.9722 32.242 48.8291 32.2434 48.686 32.2504C48.1066 32.2737 47.5313 32.3592 46.9702 32.5052C46.8258 32.5412 46.6824 32.584 46.5366 32.6276C46.3843 32.6766 46.2248 32.7255 46.0667 32.7698C45.743 32.8619 45.4129 32.9301 45.0792 32.9737C45.2985 32.7185 45.5363 32.4797 45.7908 32.2593C45.916 32.1509 46.039 32.0456 46.1707 31.9432C46.31 31.8359 46.4562 31.738 46.6085 31.6502C47.2291 31.2945 47.9272 31.0956 48.6422 31.0709C48.8209 31.0683 48.9998 31.0687 49.1779 31.0839C49.361 31.1015 49.5046 31.1183 49.6694 31.1416C49.9888 31.1864 50.3076 31.2401 50.6253 31.3082C51.2767 31.4375 51.9114 31.6398 52.5175 31.9111ZM57.8838 31.9111C58.4899 31.6398 59.1246 31.4375 59.776 31.3082C60.0937 31.2401 60.4125 31.1864 60.732 31.1416C60.8968 31.1183 61.0402 31.1015 61.2234 31.0839C61.4014 31.0687 61.5804 31.0683 61.7591 31.0709C62.474 31.0956 63.1721 31.2945 63.7928 31.6502C63.9451 31.738 64.0914 31.8359 64.2306 31.9432C64.3622 32.0456 64.4853 32.1509 64.6106 32.2593C64.865 32.4797 65.1028 32.7184 65.3221 32.9737C64.9884 32.9301 64.6583 32.8619 64.3347 32.7698C64.1766 32.7255 64.0171 32.6766 63.8648 32.6276C63.7189 32.584 63.5755 32.5412 63.4312 32.5052C62.87 32.3591 62.2947 32.2737 61.7152 32.2504C61.5724 32.2436 61.4292 32.2422 61.2858 32.2465L60.8139 32.2558C60.4913 32.2582 60.1681 32.2517 59.8438 32.2309C59.1805 32.1982 58.5231 32.0909 57.8838 31.9111Z" fill="#382810"/>
<path d="M70.6049 38.3025C70.8214 36.6088 70.4456 35.1653 69.7657 35.0784C69.0858 34.9915 68.3591 36.2941 68.1427 37.9879C67.9262 39.6816 68.302 41.1251 68.9819 41.2119C69.6619 41.2988 70.3885 39.9962 70.6049 38.3025Z" fill="#D8A353"/>
<path d="M41.5533 41.212C42.2332 41.1251 42.609 39.6816 42.3925 37.9879C42.1761 36.2942 41.4495 34.9916 40.7695 35.0785C40.0896 35.1653 39.7138 36.6088 39.9303 38.3025C40.1467 39.9963 40.8734 41.2989 41.5533 41.212Z" fill="#D8A353"/>
<path d="M42.5255 33.1729C42.6406 34.0429 42.7062 34.9065 42.7574 35.7693C42.8138 36.6318 42.8466 37.4926 42.8818 38.3521L42.9687 40.9298C43.0025 41.7895 43.0322 42.6465 43.0777 43.5228C42.76 42.7046 42.538 41.8524 42.4163 40.9831C42.2808 40.1209 42.199 39.2511 42.1714 38.3787C42.1378 37.5088 42.1488 36.6378 42.2045 35.7691C42.249 34.8971 42.3563 34.0295 42.5255 33.1729ZM68.0971 33.1729C68.2664 34.0295 68.3736 34.8971 68.4181 35.7691C68.4738 36.6378 68.4849 37.5088 68.4513 38.3787C68.4236 39.2511 68.3419 40.1209 68.2064 40.9831C68.0846 41.8524 67.8627 42.7046 67.5449 43.5228C67.5904 42.6465 67.6201 41.7895 67.6539 40.9298L67.7409 38.3521C67.776 37.4926 67.8087 36.6318 67.8653 35.7693C67.9164 34.9065 67.9821 34.0429 68.0971 33.1729Z" fill="#D8A353"/>
<path d="M63.8648 32.6276C64.0171 32.6765 64.1764 32.7257 64.3348 32.7696C64.6586 32.861 64.9885 32.9293 65.3221 32.9738C65.1021 32.7191 64.8643 32.4804 64.6105 32.2596C64.4854 32.1507 64.3622 32.0458 64.2306 31.9432C64.0914 31.8359 63.9451 31.738 63.7929 31.6502C63.4682 31.464 63.1206 31.3211 62.7589 31.2251C62.8471 31.5944 62.9287 31.9869 63.0051 32.4066C63.1469 32.4355 63.2889 32.4683 63.4311 32.5052C63.5755 32.5413 63.7189 32.584 63.8648 32.6276Z" fill="#352103"/>
<path d="M42.893 39.6144C42.893 39.6144 44.6915 17.1433 60.7015 21.6771C60.7015 21.6771 68.3396 27.9965 67.8437 41.1021C67.8437 41.1021 68.2834 36.4623 68.859 33.0403C68.859 33.0403 70.4058 24.7378 67.4314 20.1186C65.1508 16.5769 61.2683 15.8682 60.914 15.8682C60.914 15.8682 55.1814 11.5444 48.5841 16.0526C45.7442 18.0297 43.7396 20.9909 42.9591 24.3621C42.3 27.2112 41.9791 30.128 42.0029 33.0523L42.893 39.6144Z" fill="#352103"/>
<path d="M60.9141 15.8682C61.0665 16.3439 61.165 16.8353 61.2077 17.3331C61.2539 17.8169 61.2681 18.3032 61.2502 18.7888C61.2336 19.2745 61.1843 19.7585 61.1026 20.2376C61.0238 20.7311 60.8893 21.214 60.7016 21.6771C60.5482 21.2015 60.4493 20.7101 60.4068 20.2121C60.3603 19.7284 60.3465 19.2421 60.3655 18.7565C60.3831 18.2708 60.4328 17.7868 60.5143 17.3077C60.5932 16.8144 60.7273 16.3315 60.9141 15.8682Z" fill="#50422C"/>
<path d="M61.603 21.6771C61.603 21.6771 64.6826 28.1207 65.486 31.5542C66.2894 34.9878 67.5669 40.3154 65.8408 47.5012C64.1147 54.6871 67.835 55.7182 67.835 55.7182" stroke="#352103" stroke-width="1.245" stroke-miterlimit="10"/>
<path d="M51.2967 36.3772C51.0495 36.0237 50.7433 35.7153 50.3915 35.4655C50.228 35.3591 50.0517 35.2738 49.8667 35.2116C49.7755 35.1846 49.6824 35.1642 49.5882 35.1505L49.447 35.1291L49.3022 35.1266C49.1035 35.1226 48.9049 35.1382 48.7092 35.1732C48.5136 35.2122 48.3223 35.2707 48.1384 35.3478C47.748 35.5259 47.4016 35.7877 47.1238 36.1147C47.2235 35.6385 47.504 35.2196 47.9062 34.9459C48.1123 34.8059 48.339 34.6989 48.5781 34.6288C48.8178 34.563 49.0658 34.532 49.3143 34.5366C49.571 34.5401 49.8247 34.5916 50.0624 34.6884C50.2948 34.79 50.5069 34.933 50.6882 35.1105C51.0283 35.4519 51.2428 35.8984 51.2967 36.3772ZM62.7881 36.3772C62.5408 36.0237 62.2346 35.7153 61.8828 35.4655C61.7193 35.3591 61.543 35.2738 61.3581 35.2116C61.2668 35.1846 61.1737 35.1642 61.0795 35.1505L60.9383 35.1291L60.7935 35.1266C60.5948 35.1226 60.3962 35.1382 60.2005 35.1732C60.0049 35.2122 59.8136 35.2707 59.6297 35.3478C59.2394 35.526 58.893 35.7878 58.6151 36.1147C58.7148 35.6385 58.9953 35.2196 59.3975 34.9459C59.6036 34.8059 59.8303 34.6989 60.0694 34.6288C60.3091 34.563 60.5571 34.532 60.8056 34.5366C61.0623 34.5401 61.316 34.5916 61.5537 34.6884C61.7862 34.7899 61.9982 34.933 62.1795 35.1105C62.5196 35.4519 62.7341 35.8984 62.7881 36.3772Z" fill="#382810"/>
<path opacity="0.58" d="M62.8121 42.7964C64.5662 42.7964 65.9882 41.7209 65.9882 40.3942C65.9882 39.0675 64.5662 37.9921 62.8121 37.9921C61.058 37.9921 59.636 39.0675 59.636 40.3942C59.636 41.7209 61.058 42.7964 62.8121 42.7964Z" fill="url(#paint0_radial_23_183)"/>
<path opacity="0.58" d="M47.4443 42.7964C49.1985 42.7964 50.6204 41.7209 50.6204 40.3942C50.6204 39.0675 49.1985 37.9921 47.4443 37.9921C45.6902 37.9921 44.2682 39.0675 44.2682 40.3942C44.2682 41.7209 45.6902 42.7964 47.4443 42.7964Z" fill="url(#paint1_radial_23_183)"/>
<path d="M52.3962 45.8058C52.3962 45.8058 56.4116 48.1186 58.6866 44.9337C58.6866 44.9337 60.0174 52.8582 55.4674 52.1757C55.4674 52.1757 53.4857 52.3207 52.9532 48.3776C52.8408 47.5179 52.6579 46.6688 52.4064 45.839L52.3962 45.8058Z" fill="#C19656"/>
<path d="M55.4674 52.1757C57.6644 52.5053 58.5787 50.7093 58.8096 48.5755C58.206 48.3644 57.4433 48.1973 56.7755 48.5358C54.9474 49.4623 54.2442 50.4991 54.0295 51.3695C54.7269 52.2282 55.4674 52.1757 55.4674 52.1757Z" fill="#D78C5D"/>
<path d="M55.7569 83.8678C58.0447 83.8678 58.0485 80.3123 55.7569 80.3123C53.469 80.3123 53.4652 83.8678 55.7569 83.8678Z" fill="#7876CD"/>
<defs>
<radialGradient id="paint0_radial_23_183" cx="0" cy="0" r="1" gradientUnits="userSpaceOnUse" gradientTransform="translate(62.8121 40.3945) scale(2.42894 4.46131)">
<stop stop-color="#ECB665"/>
<stop offset="0.332" stop-color="#EFBE73"/>
<stop offset="0.996" stop-color="#F8D197"/>
<stop offset="1" stop-color="#F8D197"/>
</radialGradient>
<radialGradient id="paint1_radial_23_183" cx="0" cy="0" r="1" gradientUnits="userSpaceOnUse" gradientTransform="translate(47.4443 40.3945) scale(2.42894 4.46131)">
<stop stop-color="#ECB665"/>
<stop offset="0.332" stop-color="#EFBE73"/>
<stop offset="0.996" stop-color="#F8D197"/>
<stop offset="1" stop-color="#F8D197"/>
</radialGradient>
</defs>
</svg>
