<svg width="336" height="330" viewBox="0 0 336 330" fill="none" xmlns="http://www.w3.org/2000/svg">
<g clip-path="url(#clip0_4_27)">
<path d="M259.024 209.222H102.467C96.7387 209.222 91.9356 204.896 91.3375 199.2L76.105 54.1355C74.6308 40.0951 83.8336 27.1513 97.5793 23.9324L104.625 22.2825C129.33 16.4969 154.611 13.4551 179.985 13.4263C180.307 13.4259 180.629 13.4259 180.951 13.4261C206.147 13.4475 231.254 16.4208 255.799 22.1099L263.843 23.9743C277.62 27.1675 286.857 40.1273 285.38 54.1918L270.153 199.2C269.555 204.897 264.752 209.222 259.024 209.222Z" fill="#7876CD"/>
<path d="M247.391 209.222H90.8333C85.1055 209.222 80.3024 204.896 79.7042 199.2L64.4717 54.1355C62.9974 40.0951 72.2004 27.1513 85.9461 23.9324L92.9913 22.2825C117.697 16.4969 142.978 13.4551 168.352 13.4263C168.674 13.4259 168.996 13.4259 169.318 13.4261C194.514 13.4475 219.621 16.4208 244.166 22.1099L252.21 23.9743C265.987 27.1675 275.223 40.1273 273.746 54.1918L258.52 199.2C257.922 204.897 253.119 209.222 247.391 209.222Z" fill="white"/>
<path d="M247.391 209.63H90.8333C84.8789 209.63 79.9197 205.165 79.2978 199.243L64.0653 54.1783C62.5727 39.9664 71.9396 26.7926 85.8532 23.5346L92.8981 21.8849C117.9 16.0295 143.287 13.0461 168.351 13.0179L169.318 13.0175C194.245 13.0386 219.459 15.9641 244.258 21.7117L252.302 23.5761C266.255 26.8106 275.649 39.9905 274.153 54.2346L258.926 199.243C258.305 205.165 253.345 209.63 247.391 209.63ZM169.317 13.8349L168.352 13.8353C143.35 13.8637 118.026 16.8398 93.0842 22.6808L86.0393 24.3305C72.5264 27.4949 63.429 40.2898 64.878 54.093L80.1105 199.157C80.6888 204.662 85.2985 208.813 90.8333 208.813H247.391C252.926 208.813 257.535 204.662 258.114 199.157L273.34 54.1493C274.793 40.3151 265.669 27.514 252.118 24.3728L244.074 22.5084C219.334 16.7743 194.182 13.856 169.317 13.8349Z" fill="#7876CD"/>
<path d="M223.885 74.0616H114.333C109.313 74.0616 105.244 68.9122 105.244 62.5602V50.1209C105.244 42.1505 109.854 35.3803 116.083 34.2019L116.205 34.1837C151.398 28.9039 186.961 28.9043 222.154 34.1846C228.375 35.3733 232.975 42.1386 232.975 50.1V62.5602C232.975 68.9124 228.905 74.0616 223.885 74.0616Z" fill="white"/>
<path d="M223.885 74.4706H114.333C109.095 74.4706 104.835 69.1278 104.835 62.5603V50.1213C104.835 41.889 109.533 35.0248 116.007 33.8007L116.144 33.7794C151.336 28.5 187.023 28.5 222.214 33.7807C228.693 35.0186 233.383 41.8805 233.383 50.1V62.5603C233.383 69.1278 229.123 74.4706 223.885 74.4706ZM169.18 30.6372C151.501 30.6372 133.823 31.954 116.265 34.5882L116.144 34.6065C110.169 35.7369 105.652 42.4077 105.652 50.1213V62.5603C105.652 68.6768 109.546 73.6532 114.333 73.6532H223.885C228.672 73.6532 232.566 68.6768 232.566 62.5603V50.1C232.566 42.3985 228.057 35.729 222.077 34.5866C204.532 31.9541 186.855 30.6372 169.18 30.6372Z" fill="#7876CD"/>
<path d="M166.705 69.5377L168.426 54.0231C168.516 53.2072 169.702 53.2072 169.793 54.0231L171.514 69.5377H166.705Z" fill="#7876CD"/>
<path d="M175.196 69.3004H163.023V74.2002H175.196V69.3004Z" fill="#7876CD"/>
<path d="M169.098 48.1011C168.872 48.1011 168.689 47.9183 168.689 47.6924V37.3168C168.689 37.0909 168.872 36.908 169.098 36.908C169.324 36.908 169.507 37.0909 169.507 37.3168V47.6924C169.507 47.9183 169.324 48.1011 169.098 48.1011Z" fill="#7876CD"/>
<path d="M181.372 48.7301C181.363 48.7301 181.355 48.7297 181.346 48.7293C181.121 48.7158 180.95 48.5222 180.963 48.2966L181.592 37.9207C181.605 37.6955 181.807 37.526 182.025 37.5375C182.25 37.551 182.421 37.7447 182.408 37.9702L181.779 48.3461C181.766 48.5628 181.586 48.7301 181.372 48.7301Z" fill="#7876CD"/>
<path d="M193.005 49.6735C192.985 49.6735 192.964 49.6718 192.943 49.6686C192.72 49.6351 192.567 49.4267 192.601 49.2037L194.173 38.8277C194.206 38.6038 194.416 38.4514 194.637 38.4848C194.861 38.5183 195.014 38.7268 194.98 38.9498L193.408 49.3257C193.378 49.5285 193.204 49.6735 193.005 49.6735Z" fill="#7876CD"/>
<path d="M204.323 51.5598C204.292 51.5598 204.259 51.5562 204.227 51.5483C204.007 51.4952 203.873 51.2742 203.926 51.0549L206.441 40.679C206.494 40.4594 206.717 40.3246 206.935 40.3781C207.154 40.4312 207.289 40.6522 207.236 40.8714L204.72 51.2474C204.675 51.4346 204.508 51.5598 204.323 51.5598Z" fill="#7876CD"/>
<path d="M215.957 54.7041C215.921 54.7041 215.885 54.6998 215.849 54.6897C215.631 54.6303 215.503 54.4055 215.562 54.188L218.392 43.8121C218.452 43.5938 218.679 43.4645 218.894 43.5252C219.112 43.5846 219.24 43.8094 219.181 44.0269L216.351 54.4028C216.301 54.5847 216.136 54.7041 215.957 54.7041Z" fill="#7876CD"/>
<path d="M156.847 48.7301C156.632 48.7301 156.452 48.5628 156.439 48.3461L155.81 37.9702C155.797 37.7447 155.968 37.5512 156.194 37.5375C156.416 37.5263 156.613 37.6955 156.626 37.9207L157.255 48.2966C157.269 48.5222 157.097 48.7158 156.872 48.7293C156.863 48.7297 156.855 48.7301 156.847 48.7301Z" fill="#7876CD"/>
<path d="M145.213 49.6735C145.015 49.6735 144.84 49.5285 144.81 49.3257L143.238 38.9498C143.204 38.7266 143.357 38.5183 143.581 38.4848C143.802 38.4514 144.012 38.6038 144.046 38.8277L145.618 49.2037C145.652 49.4269 145.498 49.6351 145.275 49.6686C145.254 49.6718 145.234 49.6735 145.213 49.6735Z" fill="#7876CD"/>
<path d="M133.895 51.5598C133.71 51.5598 133.543 51.4346 133.498 51.2474L130.982 40.8714C130.929 40.6524 131.064 40.4312 131.283 40.3781C131.502 40.3234 131.724 40.46 131.777 40.679L134.292 51.0549C134.345 51.274 134.211 51.4952 133.991 51.5483C133.959 51.5563 133.927 51.5598 133.895 51.5598Z" fill="#7876CD"/>
<path d="M122.261 54.7041C122.082 54.7041 121.917 54.5847 121.867 54.4028L119.038 44.0268C118.978 43.8092 119.107 43.5846 119.325 43.5252C119.541 43.4649 119.767 43.5938 119.827 43.8121L122.656 54.188C122.716 54.4056 122.587 54.6303 122.369 54.6897C122.333 54.6996 122.297 54.7041 122.261 54.7041Z" fill="#7876CD"/>
<path d="M155.547 197.488H100.539C95.2971 197.488 90.9312 193.557 90.3844 188.344L80.7022 96.137C80.4091 93.3468 81.3176 90.5516 83.195 88.467C85.0718 86.3826 87.7571 85.1871 90.562 85.1871H152.206C158.209 85.1871 163.092 90.0708 163.092 96.0738V189.943C163.092 194.103 159.707 197.488 155.547 197.488ZM90.5618 86.0045C87.988 86.0045 85.5244 87.1014 83.8019 89.0137C82.0799 90.9266 81.2461 93.4916 81.5147 96.0513L91.1969 188.258C91.7002 193.054 95.7167 196.67 100.539 196.67H155.547C159.257 196.67 162.275 193.652 162.275 189.943V96.0738C162.275 90.5216 157.758 86.0045 152.206 86.0045H90.5618Z" fill="#7876CD"/>
<path d="M237.679 197.488H182.666C178.506 197.488 175.121 194.103 175.121 189.943V96.0738C175.121 90.0708 180.004 85.1871 186.007 85.1871H247.656C250.462 85.1871 253.147 86.3826 255.024 88.467C256.901 90.5518 257.809 93.3472 257.516 96.137L247.834 188.344C247.287 193.557 242.921 197.488 237.679 197.488ZM186.008 86.0045C180.455 86.0045 175.938 90.5214 175.938 96.0738V189.943C175.938 193.653 178.956 196.671 182.666 196.671H237.679C242.502 196.671 246.518 193.054 247.022 188.258L256.703 96.0515C256.972 93.4917 256.138 90.9267 254.417 89.0142C252.694 87.1014 250.23 86.0045 247.656 86.0045H186.008Z" fill="#7876CD"/>
<path d="M291.047 149.328C295.173 151.119 297.643 155.136 297.668 159.363C299.047 159.517 300.427 159.876 301.767 160.457C308.993 163.595 312.308 171.997 309.17 179.223C309.117 179.345 309.059 179.464 309.003 179.584C309.621 179.6 310.246 179.732 310.847 179.993C313.366 181.086 314.521 184.014 313.427 186.533C313.402 186.591 313.375 186.647 313.348 186.704C314.079 186.822 314.808 187.031 315.518 187.34C320.106 189.332 322.21 194.665 320.218 199.253C320.047 199.649 319.848 200.024 319.629 200.382C319.687 200.406 319.746 200.428 319.804 200.453C324.391 202.444 326.495 207.778 324.504 212.366C323.583 214.485 321.949 216.073 320.005 216.974C322.519 219.014 323.479 222.549 322.127 225.664C321.122 227.978 319.076 229.517 316.776 229.975C316.653 231.015 316.38 232.054 315.942 233.063C314.429 236.548 311.329 238.854 307.855 239.501C307.706 240.135 307.503 240.765 307.234 241.384C305.947 244.348 303.512 246.459 300.675 247.422C300.706 248.149 300.557 248.938 300.248 249.651C299.155 252.169 296.207 253.369 293.689 252.275C293.688 252.275 293.687 252.275 293.686 252.274C289.69 255.847 283.753 257.038 278.454 254.737C274.883 253.186 272.278 250.326 270.925 246.981C265.024 244.388 261.759 238.267 262.51 232.173C255.135 226.528 243.014 216.261 236.755 205.576C230.473 202.575 227.646 195.112 230.442 188.674C230.554 188.414 230.678 188.16 230.805 187.911C226.896 184.307 225.247 178.712 226.776 173.456C221.566 169.594 219.502 162.527 222.195 156.323C224.298 151.479 228.768 148.396 233.662 147.833C234.918 145.702 237.594 144.792 239.92 145.802C240.476 146.043 240.965 146.374 241.378 146.769C243.84 143.511 248.293 142.23 252.204 143.928C252.297 143.968 252.387 144.012 252.478 144.055C253.859 142.432 256.188 141.825 258.244 142.717C259.488 143.258 260.399 144.246 260.871 145.41C263.21 144.191 266.058 143.998 268.666 145.131C270.763 146.041 272.339 147.65 273.244 149.566C274.973 149.433 276.759 149.706 278.461 150.444C278.847 150.612 279.218 150.802 279.575 151.007C282.669 148.404 287.086 147.608 291.047 149.328Z" fill="#02653B"/>
<path d="M280.191 239.77C280.191 239.77 258.677 229.178 251.471 236.24C244.265 243.302 213.308 279.39 213.308 279.39L179.29 258.735C179.29 258.735 226.099 232.212 231.378 215.715C236.656 199.219 234.874 173.253 234.874 173.253L239.904 175.437C239.904 175.437 237.79 200.053 242.058 199.91C246.326 199.767 252.214 187.671 254.376 179.268C261.077 178.993 269.762 182.975 269.762 182.975C269.762 182.975 246.384 204.033 252.745 205.52C259.105 207.008 276.5 194.815 276.5 194.815L278.363 201.772C278.363 201.772 248.148 213.714 253.709 219.95C259.27 226.186 276.78 211.284 278.574 210.577C280.532 212.913 268.322 220.987 274.075 220.937C279.829 220.888 285.792 219.867 285.792 219.867L287.374 231.382C287.374 231.382 268.331 224.388 267.471 227.836C266.611 231.284 282.904 235.81 282.904 235.81L280.191 239.77Z" fill="white"/>
<path d="M213.308 279.799C213.235 279.799 213.162 279.78 213.096 279.74L179.078 259.084C178.954 259.009 178.879 258.874 178.881 258.729C178.884 258.584 178.962 258.451 179.089 258.379C179.555 258.115 225.819 231.746 230.989 215.591C236.182 199.359 234.484 173.54 234.466 173.28C234.456 173.138 234.521 173.001 234.638 172.919C234.755 172.836 234.906 172.82 235.036 172.878L240.067 175.062C240.228 175.132 240.327 175.297 240.312 175.472C239.818 181.222 239.06 196.697 241.453 199.217C241.704 199.482 241.913 199.503 242.044 199.501C245.79 199.375 251.637 188.274 253.98 179.166C254.025 178.992 254.179 178.867 254.359 178.86C261.086 178.583 269.574 182.439 269.933 182.603C270.058 182.66 270.146 182.777 270.166 182.913C270.187 183.049 270.138 183.186 270.036 183.278C262.397 190.159 251.314 201.493 252.091 204.513C252.142 204.711 252.275 204.99 252.837 205.122C258.961 206.554 276.093 194.601 276.265 194.48C276.375 194.403 276.514 194.385 276.64 194.431C276.765 194.476 276.86 194.58 276.895 194.709L278.757 201.666C278.811 201.866 278.706 202.075 278.512 202.152C278.277 202.245 254.972 211.522 253.501 217.717C253.326 218.453 253.494 219.095 254.014 219.678C258.267 224.447 270.535 215.698 275.774 211.961C277.3 210.873 278.05 210.343 278.423 210.196C278.587 210.132 278.774 210.179 278.887 210.314C280.014 211.659 277.933 213.937 275.73 216.348C274.446 217.753 272.688 219.678 272.948 220.259C273.008 220.393 273.353 220.525 274.071 220.528C279.727 220.48 285.664 219.475 285.723 219.465C285.834 219.445 285.944 219.472 286.033 219.538C286.123 219.603 286.182 219.702 286.196 219.812L287.778 231.326C287.798 231.468 287.742 231.61 287.63 231.7C287.518 231.79 287.367 231.815 287.233 231.765C282.802 230.138 270.744 226.209 268.204 227.558C267.953 227.691 267.892 227.837 267.867 227.935C267.34 230.047 276.406 233.581 283.012 235.416C283.14 235.451 283.242 235.546 283.287 235.67C283.332 235.794 283.315 235.932 283.24 236.041L280.527 240.001C280.413 240.169 280.193 240.227 280.01 240.137C279.797 240.033 258.674 229.753 251.757 236.532C244.646 243.5 213.927 279.296 213.618 279.657C213.539 279.75 213.424 279.799 213.308 279.799ZM180.095 258.746L213.224 278.861C216.055 275.565 244.374 242.623 251.185 235.948C258.115 229.156 277.237 237.906 280.052 239.249L282.245 236.048C278.544 234.99 266.214 231.187 267.074 227.737C267.171 227.35 267.422 227.047 267.822 226.835C270.881 225.216 283.568 229.581 286.877 230.767L285.444 220.337C283.984 220.567 278.93 221.304 274.079 221.346C273.699 221.354 272.543 221.359 272.201 220.592C271.747 219.573 273.017 218.106 275.127 215.797C276.56 214.229 278.465 212.143 278.38 211.147C277.918 211.437 277.128 212 276.249 212.627C270.372 216.819 258.144 225.538 253.404 220.222C252.703 219.436 252.468 218.53 252.706 217.528C254.19 211.275 274.842 202.748 277.874 201.527L276.255 195.481C273.345 197.475 258.592 207.309 252.652 205.918C251.734 205.703 251.41 205.146 251.299 204.717C250.214 200.499 265.626 186.185 269.019 183.097C267.021 182.25 260.193 179.542 254.695 179.667C252.413 188.29 246.588 200.167 242.072 200.318C241.638 200.336 241.214 200.153 240.861 199.78C237.892 196.653 239.258 178.351 239.473 175.695L235.321 173.892C235.551 178.077 236.538 200.931 231.767 215.84C226.765 231.473 185.832 255.449 180.095 258.746Z" fill="#02653B"/>
<path d="M286.822 208.454C287.403 208.483 287.989 208.614 288.554 208.859C290.752 209.813 291.909 212.165 291.44 214.421C292.622 214.482 293.812 214.751 294.962 215.25C300.116 217.488 302.481 223.481 300.243 228.636C298.626 232.361 295.048 234.627 291.243 234.755C293.456 237.46 294.118 241.277 292.63 244.704C290.683 249.188 285.736 251.441 281.159 250.137C279.839 250.909 278.182 251.063 276.672 250.407C274.156 249.315 273.002 246.39 274.095 243.875C274.195 243.643 274.311 243.424 274.441 243.216C273.938 241.224 274.064 239.056 274.945 237.026C276.441 233.582 279.705 231.455 283.213 231.243C280.737 228.377 279.967 224.238 281.576 220.532C282.091 219.344 282.808 218.307 283.666 217.438C282.528 216.616 281.81 215.359 281.646 214.006C281.065 213.977 280.479 213.846 279.914 213.6C277.399 212.508 276.245 209.583 277.337 207.067C278.429 204.552 281.354 203.398 283.87 204.49C285.547 205.218 286.618 206.761 286.822 208.454Z" fill="#02653B"/>
<path d="M276.672 250.816C276.618 250.816 276.562 250.805 276.509 250.782C275.193 250.21 274.177 249.16 273.65 247.825C273.123 246.489 273.148 245.029 273.72 243.712C273.803 243.519 273.899 243.33 274.004 243.149C273.507 241.034 273.702 238.863 274.57 236.862C275.982 233.611 278.947 231.383 282.422 230.909C280.183 227.895 279.694 223.84 281.201 220.368C281.663 219.305 282.288 218.335 283.062 217.481C282.142 216.684 281.514 215.589 281.291 214.386C280.761 214.327 280.244 214.189 279.752 213.975C277.033 212.795 275.782 209.623 276.962 206.904C277.534 205.587 278.584 204.572 279.92 204.045C280.131 203.963 280.367 204.066 280.45 204.275C280.533 204.485 280.43 204.723 280.22 204.806C279.087 205.252 278.197 206.113 277.712 207.23C277.227 208.346 277.207 209.585 277.653 210.717C278.1 211.849 278.961 212.74 280.077 213.225C280.582 213.445 281.117 213.57 281.667 213.597C281.866 213.607 282.029 213.758 282.053 213.956C282.205 215.218 282.88 216.366 283.905 217.106C284.002 217.176 284.064 217.284 284.073 217.403C284.083 217.522 284.041 217.64 283.957 217.724C283.108 218.585 282.433 219.584 281.951 220.694C280.465 224.115 281.082 228.151 283.522 230.975C283.624 231.093 283.65 231.258 283.59 231.401C283.529 231.545 283.393 231.641 283.238 231.65C279.745 231.862 276.711 233.984 275.32 237.188C274.502 239.074 274.335 241.124 274.838 243.116C274.865 243.224 274.847 243.338 274.788 243.433C274.668 243.625 274.561 243.828 274.47 244.038C273.985 245.154 273.964 246.392 274.411 247.524C274.858 248.657 275.719 249.547 276.836 250.032C277.043 250.122 277.138 250.363 277.047 250.57C276.981 250.724 276.83 250.816 276.672 250.816Z" fill="white"/>
<path d="M246.814 171.746C248.488 172.911 249.167 175.13 248.323 177.073C247.362 179.287 244.787 180.303 242.573 179.341C242.11 179.141 241.701 178.869 241.351 178.546C238.959 179.626 236.137 179.732 233.54 178.604C228.657 176.484 226.417 170.806 228.537 165.923C230.657 161.04 236.335 158.8 241.218 160.92C245.493 162.776 247.742 167.357 246.814 171.746Z" fill="#02653B"/>
<path d="M244.244 180.294C243.602 180.294 242.952 180.164 242.332 179.895C241.923 179.717 241.543 179.485 241.2 179.202C238.678 180.263 235.814 180.25 233.3 179.158C230.838 178.089 228.94 176.125 227.954 173.628C226.969 171.132 227.015 168.401 228.084 165.939C229.296 163.147 231.675 161.076 234.61 160.259C234.828 160.198 235.053 160.325 235.113 160.543C235.174 160.761 235.047 160.986 234.83 161.046C232.133 161.797 229.947 163.699 228.834 166.264C227.852 168.526 227.809 171.034 228.715 173.328C229.62 175.622 231.364 177.426 233.625 178.408C236.008 179.442 238.735 179.422 241.104 178.351C241.255 178.285 241.429 178.312 241.55 178.423C241.877 178.725 242.25 178.968 242.658 179.145C244.248 179.834 246.082 179.423 247.221 178.118C247.369 177.949 247.627 177.931 247.797 178.079C247.967 178.228 247.984 178.486 247.836 178.656C246.906 179.722 245.592 180.294 244.244 180.294Z" fill="white"/>
<path d="M269.846 175.522C271.773 174.595 274.076 174.478 276.191 175.396C279.565 176.861 281.344 180.472 280.624 183.937C281.473 184.054 282.321 184.285 283.145 184.643C288.029 186.764 290.269 192.441 288.149 197.325C286.028 202.208 280.351 204.448 275.467 202.328C270.584 200.208 268.344 194.53 270.464 189.647C270.478 189.613 270.495 189.581 270.51 189.547C270.378 189.498 270.246 189.446 270.115 189.389C267.707 188.344 266.112 186.205 265.657 183.806C263.013 185.614 259.527 186.066 256.372 184.696C251.488 182.576 249.248 176.898 251.368 172.015C253.489 167.131 259.166 164.891 264.05 167.011C267.573 168.541 269.72 171.923 269.846 175.522Z" fill="#02653B"/>
<path d="M279.639 203.68C278.293 203.68 276.938 203.412 275.662 202.858C270.675 200.693 268.329 194.943 270.327 189.926C270.321 189.924 270.315 189.921 270.31 189.919C268.049 188.937 266.377 186.982 265.746 184.619C262.96 186.296 259.572 186.531 256.567 185.226C254.105 184.157 252.206 182.193 251.221 179.697C250.236 177.2 250.282 174.469 251.351 172.007C251.891 170.763 252.659 169.662 253.634 168.734C253.797 168.578 254.055 168.583 254.211 168.748C254.367 168.911 254.361 169.17 254.197 169.325C253.302 170.178 252.597 171.189 252.101 172.332C251.119 174.594 251.076 177.103 251.981 179.396C252.886 181.69 254.63 183.494 256.892 184.476C259.82 185.747 263.143 185.428 265.784 183.623C265.898 183.545 266.043 183.53 266.171 183.583C266.299 183.636 266.391 183.749 266.416 183.884C266.863 186.24 268.44 188.216 270.636 189.169C270.761 189.223 270.885 189.272 271.01 189.319C271.115 189.358 271.2 189.439 271.244 189.543C271.288 189.647 271.287 189.764 271.242 189.867L271.195 189.966C269.169 194.633 271.319 200.081 275.988 202.108C279.473 203.62 283.602 202.815 286.261 200.101C286.419 199.94 286.678 199.937 286.839 200.095C287.001 200.253 287.003 200.512 286.845 200.673C284.923 202.634 282.297 203.68 279.639 203.68Z" fill="white"/>
<path d="M241.963 165.199C240.084 164.383 237.9 165.245 237.084 167.123C236.268 169.002 237.13 171.186 239.009 172.002C240.887 172.818 243.072 171.956 243.887 170.077C244.703 168.198 243.841 166.014 241.963 165.199Z" fill="white"/>
<path d="M250.882 159.996C249.707 159.485 248.34 160.024 247.829 161.2C247.319 162.376 247.858 163.743 249.034 164.253C250.209 164.764 251.576 164.224 252.087 163.049C252.597 161.873 252.058 160.506 250.882 159.996Z" fill="white"/>
<path d="M290.893 241.614C289.166 240.865 287.159 241.656 286.41 243.383C285.66 245.109 286.452 247.117 288.179 247.866C289.905 248.616 291.912 247.824 292.662 246.097C293.411 244.371 292.62 242.364 290.893 241.614Z" fill="white"/>
<path d="M280.871 238.537C279.786 238.065 278.524 238.563 278.053 239.648C277.581 240.734 278.079 241.995 279.165 242.467C280.25 242.938 281.511 242.44 281.983 241.355C282.454 240.269 281.956 239.008 280.871 238.537Z" fill="white"/>
<path d="M214.19 277.844C216.867 271.678 210.713 263.064 200.443 258.605C190.173 254.146 179.678 255.53 177 261.696C174.323 267.862 180.477 276.475 190.747 280.935C201.017 285.394 211.513 284.01 214.19 277.844Z" fill="white"/>
<path d="M202.489 283.932C198.801 283.932 194.66 283.078 190.565 281.299C180.106 276.758 173.843 267.887 176.606 261.524C179.368 255.161 190.126 253.679 200.585 258.221C211.045 262.762 217.307 271.633 214.545 277.996C212.864 281.867 208.222 283.932 202.489 283.932ZM188.606 256.386C183.226 256.386 178.906 258.279 177.355 261.85C174.773 267.799 180.844 276.188 190.891 280.55C200.937 284.911 211.212 283.62 213.795 277.67C216.378 271.721 210.306 263.332 200.26 258.97C196.243 257.227 192.189 256.386 188.606 256.386Z" fill="#02653B"/>
<path d="M181.315 271.479C181.188 271.479 181.064 271.42 180.983 271.31C179.046 268.634 178.49 265.985 179.417 263.852C180.406 261.574 182.936 260.149 186.541 259.84C190.055 259.537 194.2 260.331 198.213 262.074C201.068 263.313 203.66 264.957 205.706 266.825C205.873 266.977 205.885 267.236 205.732 267.402C205.579 267.57 205.32 267.581 205.155 267.429C203.174 265.62 200.661 264.028 197.887 262.824C193.997 261.135 189.995 260.365 186.61 260.655C183.319 260.937 181.03 262.188 180.166 264.177C179.359 266.035 179.885 268.398 181.645 270.831C181.778 271.014 181.737 271.269 181.554 271.402C181.482 271.454 181.398 271.479 181.315 271.479Z" fill="#02653B"/>
<path d="M208.214 278.902C208.106 278.902 207.997 278.86 207.917 278.775C207.762 278.611 207.769 278.352 207.933 278.197C208.397 277.757 208.756 277.251 208.998 276.694C209.399 275.769 209.475 274.725 209.223 273.591C209.174 273.371 209.313 273.152 209.534 273.103C209.756 273.056 209.972 273.194 210.022 273.414C210.311 274.72 210.219 275.933 209.747 277.02C209.462 277.678 209.04 278.274 208.495 278.79C208.416 278.865 208.315 278.902 208.214 278.902Z" fill="#02653B"/>
<path d="M91.7165 174.295C102.035 163.312 120.605 145.24 151.018 163.484C181.43 181.728 164.88 225.051 131.158 248.478C97.4353 271.905 57.088 281.793 57.512 260.132C57.8931 240.669 63.6959 204.123 91.7165 174.295Z" fill="white"/>
<path d="M72.5141 272.549C68.5329 272.549 65.2189 271.884 62.7191 270.545C58.8975 268.499 57.0082 264.993 57.1036 260.124C57.4013 244.9 61.3415 206.033 91.419 174.015C97.5656 167.472 104.518 160.948 113.69 157.546C125.261 153.255 137.892 155.134 151.228 163.134C161.412 169.243 167 178.579 167.386 190.132C168.044 209.818 153.579 233.4 131.391 248.814C118.595 257.704 104.566 264.852 91.8892 268.943C84.4595 271.34 77.8808 272.549 72.5141 272.549ZM91.7165 174.295L92.0143 174.575C62.1317 206.385 58.2167 245.01 57.9208 260.14C57.8319 264.677 59.5761 267.935 63.1048 269.825C65.4997 271.107 68.674 271.718 72.433 271.718C86.8663 271.719 109.95 262.714 130.925 248.142C152.894 232.881 167.218 209.579 166.569 190.159C166.192 178.897 160.742 169.794 150.807 163.834C119.657 145.148 100.987 165.024 92.0144 174.575L91.7165 174.295Z" fill="#B26932"/>
<path d="M104.636 246.877C104.211 246.823 103.805 246.616 103.508 246.263C93.2064 234.027 68.2305 230.213 67.9792 230.175C67.0139 230.033 66.3464 229.134 66.489 228.169C66.6296 227.215 67.5078 226.552 68.4602 226.674C68.4717 226.675 68.483 226.676 68.4946 226.678C69.5735 226.837 95.0437 230.721 106.212 243.986C106.841 244.733 106.745 245.847 105.998 246.476C105.605 246.807 105.109 246.938 104.636 246.877Z" fill="#B26932"/>
<path d="M125.076 225.431C124.694 225.382 124.325 225.209 124.036 224.912C104.672 205.054 81.4241 204.225 81.1921 204.219C80.2138 204.194 79.4458 203.382 79.4711 202.406C79.4965 201.43 80.3081 200.659 81.2837 200.685C81.5393 200.692 87.6305 200.879 96.2761 203.656C104.227 206.209 115.935 211.541 126.566 222.444C127.247 223.142 127.234 224.262 126.535 224.943C126.133 225.335 125.593 225.497 125.076 225.431Z" fill="#B26932"/>
<path d="M146.676 200.134C146.312 200.088 145.959 199.927 145.674 199.653C135.664 189.991 123.537 184.986 115.126 182.489C105.956 179.766 99.0776 179.345 99.0092 179.341C98.0394 179.287 97.2901 178.45 97.3455 177.476C97.4009 176.502 98.2349 175.757 99.209 175.812C99.5019 175.828 106.489 176.248 116.033 179.07C124.851 181.678 137.577 186.924 148.129 197.109C148.831 197.787 148.851 198.906 148.173 199.608C147.77 200.026 147.211 200.202 146.676 200.134Z" fill="#B26932"/>
<path d="M217.494 189.234C218.578 190.702 222.888 196.339 224.021 197.77C241.385 219.707 238.581 281.044 132.196 281.879C132.196 281.879 148.986 243.096 163.481 242.053C177.231 241.063 185.004 243.344 190.028 223.915C190.564 221.841 190.106 219.634 188.804 217.932C187.503 216.23 185.494 215.209 183.352 215.183C163.285 214.938 163.449 223.037 158.889 236.047C154.082 249.761 112.254 255.797 112.254 255.797C140.949 153.351 200.876 166.726 217.494 189.234Z" fill="white"/>
<path d="M132.196 282.288C132.059 282.288 131.931 282.219 131.855 282.104C131.779 281.989 131.766 281.843 131.821 281.716C132.51 280.124 148.877 242.694 163.452 241.645C165.116 241.525 166.676 241.454 168.185 241.385C178.852 240.898 185.29 240.604 189.632 223.812C190.139 221.853 189.718 219.801 188.48 218.18C187.241 216.56 185.37 215.616 183.347 215.592C165.994 215.365 164.032 221.517 160.766 231.682C160.304 233.12 159.826 234.607 159.274 236.182C154.442 249.972 114.03 255.953 112.312 256.201C112.174 256.223 112.037 256.17 111.946 256.066C111.855 255.962 111.823 255.819 111.86 255.686C119.164 229.613 128.998 209.243 141.091 195.143C151.302 183.236 162.827 176.035 175.344 173.739C194.234 170.273 210.606 179.216 217.823 188.991C218.901 190.451 223.226 196.108 224.341 197.516C231.883 207.043 236.22 225.187 227.923 242.508C222.426 253.986 212.455 263.219 198.288 269.952C181.511 277.925 159.276 282.076 132.199 282.288C132.198 282.288 132.197 282.288 132.196 282.288ZM182.471 214.769C182.762 214.769 183.057 214.771 183.357 214.774C185.633 214.802 187.737 215.863 189.129 217.684C190.522 219.505 190.993 221.814 190.423 224.017C185.93 241.393 179.265 241.697 168.222 242.202C166.719 242.27 165.164 242.341 163.51 242.46C150.381 243.405 134.989 276.648 132.827 281.465C159.496 281.194 181.4 277.073 197.937 269.213C211.93 262.563 221.771 253.459 227.186 242.155C235.331 225.15 231.089 207.358 223.7 198.023C222.582 196.611 218.246 190.94 217.165 189.477C210.094 179.899 194.038 171.141 175.491 174.543C163.163 176.805 151.797 183.915 141.711 195.675C129.791 209.574 120.072 229.631 112.819 255.296C118.034 254.472 154.15 248.332 158.503 235.912C159.051 234.347 159.527 232.865 159.988 231.432C163.313 221.084 165.343 214.769 182.471 214.769Z" fill="#891A1A"/>
<path d="M109.942 257.567C110.312 258.05 110.837 258.423 111.468 258.6C113.017 259.033 114.623 258.13 115.057 256.582C122.229 230.978 131.835 211.034 143.611 197.304C153.314 185.99 164.192 179.16 175.942 177.004C193.433 173.796 208.531 181.998 215.152 190.963C216.266 192.471 220.574 198.106 221.738 199.576C228.658 208.319 232.611 225.037 224.929 241.074C219.769 251.848 210.326 260.555 196.863 266.953C180.527 274.717 158.762 278.76 132.173 278.968C130.565 278.981 129.272 280.294 129.285 281.902C129.298 283.51 130.611 284.803 132.219 284.79C159.663 284.575 182.253 280.343 199.362 272.212C206.947 268.607 213.473 264.214 218.759 259.155C223.618 254.504 227.46 249.267 230.18 243.589C234.139 235.323 235.677 226.177 234.626 217.141C233.689 209.081 230.734 201.561 226.303 195.963C225.191 194.558 220.9 188.946 219.836 187.505C215.594 181.76 209.113 176.938 201.581 173.921C193.136 170.538 183.907 169.624 174.892 171.278C168.7 172.414 162.639 174.749 156.876 178.219C150.608 181.994 144.658 187.14 139.191 193.514C126.859 207.893 116.853 228.584 109.45 255.012C109.194 255.928 109.405 256.865 109.942 257.567Z" fill="#891A1A"/>
<path d="M192.07 207.346C189.251 209.502 188.713 213.535 190.869 216.354C193.024 219.173 197.057 219.711 199.877 217.556C202.696 215.4 203.234 211.367 201.078 208.548C198.923 205.728 194.89 205.19 192.07 207.346Z" fill="#891A1A"/>
<path d="M195.525 258.879C193.961 258.879 192.398 258.76 190.849 258.517C186.648 257.857 182.615 256.331 178.714 254.854C176.273 253.929 173.75 252.974 171.216 252.244C166.595 250.913 157.946 249.418 151.938 254.377C151.764 254.52 151.507 254.496 151.363 254.322C151.219 254.147 151.244 253.89 151.418 253.746C157.714 248.549 166.666 250.082 171.443 251.459C174.008 252.198 176.547 253.159 179.004 254.089C182.865 255.551 186.858 257.063 190.976 257.709C199.532 259.052 208.584 256.511 215.191 250.91C215.363 250.764 215.622 250.786 215.767 250.958C215.913 251.13 215.892 251.388 215.719 251.534C210.13 256.272 202.835 258.879 195.525 258.879Z" fill="#891A1A"/>
<path d="M174.311 271.67C172.051 271.67 169.859 270.876 168.197 270.054C166.967 269.445 165.779 268.724 164.631 268.027C163.148 267.126 161.615 266.195 160.004 265.52C154.185 263.082 148.491 264.58 143.081 269.972C142.921 270.131 142.662 270.131 142.503 269.972C142.343 269.812 142.344 269.553 142.504 269.394C148.092 263.824 154.252 262.224 160.32 264.767C161.987 265.465 163.547 266.412 165.055 267.328C166.188 268.016 167.36 268.728 168.559 269.321C170.872 270.465 174.26 271.559 177.268 270.274C177.473 270.185 177.715 270.281 177.804 270.489C177.893 270.697 177.796 270.937 177.588 271.026C176.515 271.484 175.405 271.67 174.311 271.67Z" fill="white"/>
<path d="M220.471 233.429C220.461 233.429 220.451 233.428 220.44 233.428C220.215 233.411 220.046 233.215 220.063 232.99C220.345 229.172 219.115 225.284 216.689 222.323C214.262 219.363 210.691 217.394 206.892 216.922C206.668 216.894 206.509 216.69 206.537 216.466C206.564 216.242 206.767 216.079 206.992 216.111C210.998 216.608 214.763 218.684 217.321 221.805C219.879 224.926 221.176 229.025 220.878 233.05C220.863 233.265 220.683 233.429 220.471 233.429Z" fill="#891A1A"/>
<path d="M144.807 245.483C144.679 245.483 144.553 245.423 144.473 245.31C144.343 245.126 144.387 244.871 144.571 244.741C150.93 240.244 151.756 231.505 151.682 226.696C151.642 224.06 151.382 221.374 151.13 218.777C150.728 214.625 150.311 210.332 150.776 206.105C151.749 197.263 156.705 188.975 164.035 183.935C164.221 183.808 164.476 183.855 164.604 184.041C164.732 184.227 164.684 184.481 164.498 184.609C157.362 189.516 152.536 197.585 151.589 206.195C151.133 210.338 151.545 214.588 151.943 218.698C152.197 221.312 152.459 224.015 152.5 226.683C152.576 231.653 151.709 240.695 145.043 245.408C144.972 245.459 144.889 245.483 144.807 245.483Z" fill="#891A1A"/>
<path d="M125.764 250.953C125.622 250.953 125.485 250.879 125.409 250.748C125.297 250.552 125.364 250.302 125.56 250.19C131.179 246.959 136.855 241.018 135.932 234.035C135.702 232.303 135.206 230.58 134.726 228.913C134.354 227.622 133.969 226.288 133.704 224.941C133.174 222.241 133.007 218.432 135.229 215.622C135.368 215.446 135.625 215.415 135.803 215.555C135.98 215.695 136.01 215.952 135.87 216.129C133.842 218.695 134.009 222.251 134.507 224.783C134.764 226.095 135.144 227.413 135.511 228.687C136 230.382 136.505 232.136 136.742 233.928C137.718 241.311 131.816 247.535 125.967 250.898C125.903 250.935 125.833 250.953 125.764 250.953Z" fill="#891A1A"/>
<path d="M195.527 201.994C195.508 201.994 195.489 201.993 195.469 201.99C195.246 201.958 195.09 201.751 195.122 201.528C195.662 197.738 194.699 193.776 192.478 190.658C190.257 187.54 186.827 185.334 183.069 184.605C182.847 184.562 182.702 184.347 182.746 184.126C182.789 183.904 183.005 183.76 183.225 183.803C187.187 184.571 190.802 186.896 193.143 190.184C195.485 193.471 196.501 197.648 195.931 201.643C195.902 201.847 195.728 201.994 195.527 201.994Z" fill="#891A1A"/>
<path d="M225.868 226.326C225.85 226.326 225.831 226.325 225.813 226.322C225.589 226.292 225.432 226.086 225.462 225.862C225.976 222.066 224.761 218.083 222.13 214.936C219.478 211.763 215.735 209.845 211.86 209.675C211.168 209.644 210.457 209.649 209.705 209.653C206.682 209.674 203.558 209.693 201.843 207.362C200.126 205.027 201.078 202.044 201.999 199.158C202.243 198.394 202.473 197.672 202.656 196.96C203.586 193.35 202.871 189.376 200.694 186.057C198.545 182.78 195.245 180.571 191.64 179.997C191.417 179.962 191.265 179.753 191.3 179.529C191.336 179.307 191.544 179.155 191.768 179.19C195.6 179.8 199.103 182.14 201.378 185.609C203.681 189.12 204.435 193.332 203.448 197.163C203.259 197.899 203.014 198.665 202.778 199.407C201.919 202.097 201.031 204.879 202.502 206.878C203.97 208.873 206.882 208.856 209.7 208.836C210.43 208.832 211.184 208.827 211.896 208.858C216 209.039 219.959 211.063 222.757 214.411C225.535 217.735 226.817 221.949 226.273 225.972C226.245 226.177 226.07 226.326 225.868 226.326Z" fill="#891A1A"/>
<path d="M167.606 291.357C176.126 307.481 192.516 311.917 206.063 304.76C219.609 297.602 225.182 281.562 216.663 265.438C208.144 249.314 188.759 239.211 175.212 246.368C161.666 253.526 159.087 275.233 167.606 291.357Z" fill="white"/>
<path d="M193.031 308.478C190.258 308.478 187.496 308.047 184.823 307.177C177.461 304.783 171.382 299.378 167.245 291.547C163.054 283.615 161.408 274.098 162.731 265.438C164.116 256.363 168.481 249.462 175.021 246.007C181.561 242.551 189.722 242.834 198 246.804C205.899 250.592 212.833 257.314 217.024 265.247C221.161 273.078 222.201 281.145 220.03 288.576C217.966 295.642 213.073 301.518 206.253 305.121C202.039 307.348 197.52 308.478 193.031 308.478ZM185.014 244.425C181.566 244.425 178.315 245.191 175.403 246.73C169.098 250.061 164.884 256.749 163.539 265.561C162.242 274.052 163.857 283.385 167.968 291.166C175.928 306.232 191.869 311.796 205.872 304.398C219.875 297 224.261 280.695 216.302 265.629C212.19 257.848 205.39 251.255 197.646 247.541C193.32 245.467 189.033 244.425 185.014 244.425Z" fill="#A89269"/>
<path d="M208.536 263.83C208.412 263.83 208.289 263.773 208.209 263.666C204.739 259.021 200.097 255.152 195.137 252.774C188.798 249.735 182.753 249.41 178.114 251.861C177.915 251.967 177.667 251.89 177.562 251.69C177.456 251.49 177.533 251.244 177.732 251.138C182.605 248.564 188.911 248.883 195.491 252.037C200.567 254.471 205.317 258.428 208.863 263.176C208.999 263.357 208.962 263.613 208.781 263.748C208.707 263.804 208.621 263.83 208.536 263.83Z" fill="#A89269"/>
<path d="M204.657 268.662C201.632 286.646 211.96 300.125 227.069 302.665C242.178 305.206 256.346 295.847 259.371 277.863C262.395 259.879 253.13 240.081 238.021 237.54C222.912 234.999 207.681 250.678 204.657 268.662Z" fill="white"/>
<path d="M231.926 303.484C230.301 303.484 228.655 303.347 227.001 303.069C219.396 301.79 212.906 297.747 208.726 291.687C204.332 285.313 202.785 277.328 204.254 268.595C205.742 259.747 210.214 251.187 216.524 245.11C223.136 238.741 230.795 235.909 238.089 237.137C245.384 238.364 251.695 243.544 255.861 251.725C259.835 259.532 261.262 269.084 259.774 277.931C258.305 286.665 254.232 293.705 247.994 298.291C243.352 301.703 237.777 303.484 231.926 303.484ZM234.732 237.675C228.696 237.675 222.538 240.453 217.091 245.699C210.905 251.657 206.519 260.051 205.06 268.73C203.627 277.25 205.128 285.028 209.4 291.223C213.452 297.1 219.751 301.02 227.137 302.262C234.523 303.504 241.757 301.86 247.509 297.632C253.572 293.175 257.535 286.315 258.968 277.795C260.427 269.117 259.029 259.75 255.132 252.096C251.086 244.152 244.986 239.125 237.954 237.943C236.887 237.763 235.811 237.675 234.732 237.675Z" fill="#A89269"/>
<path d="M254.14 271.734C254.138 271.734 254.137 271.734 254.135 271.734C253.909 271.732 253.728 271.547 253.731 271.321C253.795 265.523 252.456 259.63 249.96 254.729C246.77 248.465 242.164 244.536 236.991 243.666C236.768 243.628 236.619 243.418 236.656 243.195C236.693 242.972 236.901 242.824 237.127 242.859C242.562 243.773 247.378 247.857 250.689 254.358C253.243 259.375 254.614 265.402 254.548 271.33C254.546 271.554 254.363 271.734 254.14 271.734Z" fill="#A89269"/>
<path d="M176.729 281.066C176.729 281.066 167.919 310.457 129.844 310.937C88.5617 311.458 67.4254 265.758 75.7988 232.194C80.0405 215.191 88.5028 212.322 88.5028 212.322L176.729 281.066Z" fill="#1D811D"/>
<path d="M129.125 311.351C108.712 311.351 95.7358 300.403 88.418 291.155C75.601 274.959 70.492 251.777 75.4021 232.095C79.6492 215.071 88.0177 212.055 88.3718 211.935C88.503 211.891 88.6459 211.915 88.7541 211.999L176.98 280.743C177.113 280.847 177.169 281.021 177.121 281.183C177.098 281.257 174.81 288.709 167.862 296.102C161.456 302.918 149.661 311.097 129.849 311.346C129.607 311.349 129.364 311.351 129.125 311.351ZM88.4387 212.79C87.1615 213.358 79.9661 217.179 76.1957 232.293C71.3443 251.738 76.3937 274.644 89.0592 290.648C96.2646 299.753 109.042 310.533 129.126 310.533C129.364 310.533 129.599 310.532 129.839 310.529C149.364 310.283 160.969 302.243 167.267 295.542C173.352 289.066 175.784 282.581 176.251 281.211L88.4387 212.79Z" fill="white"/>
<path d="M170.228 289.544C170.228 289.544 144.059 315.24 107.505 276.756C70.9505 238.273 80.9556 210.423 92.9936 211.215C105.031 212.008 124.893 231.273 151.238 243.44C177.582 255.607 184.936 276.205 170.228 289.544Z" fill="white"/>
<path d="M147.501 298.354C147.294 298.354 147.087 298.352 146.877 298.349C133.77 298.12 120.424 290.95 107.208 277.038C81.7346 250.22 78.562 228.193 83.585 217.479C85.6622 213.05 89.1881 210.558 93.0201 210.807C99.6146 211.242 108.293 216.98 119.282 224.244C128.659 230.444 139.287 237.471 151.409 243.069C166.593 250.082 176.238 260.217 177.871 270.877C178.952 277.933 176.405 284.491 170.508 289.842C170.217 290.122 161.503 298.354 147.501 298.354ZM92.4954 211.608C89.1944 211.608 86.1666 213.899 84.3257 217.826C79.4116 228.307 82.6112 249.956 107.801 276.475C120.86 290.223 134.012 297.307 146.892 297.531C147.096 297.535 147.301 297.536 147.503 297.536C161.343 297.537 169.857 289.336 169.942 289.252C169.946 289.248 169.95 289.245 169.954 289.241C175.642 284.082 178.1 277.775 177.063 271.001C175.472 260.617 165.997 250.707 151.066 243.812C138.888 238.187 128.232 231.142 118.831 224.926C107.944 217.728 99.3448 212.043 92.9668 211.623C92.8091 211.613 92.6518 211.608 92.4954 211.608Z" fill="black"/>
<path d="M151.238 272.447C151.238 272.447 144.072 281.751 125.231 267.042C106.391 252.334 116.602 237.966 133.006 243.699C149.41 249.432 155.811 264.194 151.238 272.447Z" fill="#613D30"/>
<path d="M148.17 261.861C148.005 261.861 147.85 261.76 147.788 261.598C145.421 255.392 139.413 250.081 131.716 247.391C129.68 246.679 127.736 246.319 125.938 246.319C125.712 246.319 125.529 246.136 125.529 245.91C125.529 245.684 125.712 245.502 125.938 245.502C127.828 245.502 129.863 245.878 131.985 246.619C139.908 249.388 146.101 254.879 148.552 261.306C148.632 261.517 148.526 261.753 148.315 261.834C148.267 261.852 148.218 261.861 148.17 261.861Z" fill="white"/>
<path d="M223.968 288.549C223.968 288.549 214.146 280.348 216.465 279.463C218.784 278.579 219.965 280.193 219.965 280.193L223.968 288.549Z" fill="#FF8767"/>
<path d="M223.082 286.9C223.082 286.9 215.556 278.926 218.899 277.582C222.242 276.237 223.892 277.602 223.892 277.602C223.892 277.602 227.219 275.001 227.019 277.999C226.818 280.996 223.875 287.783 223.082 286.9Z" fill="#FF8767"/>
<path d="M234.587 297.822C234.587 297.822 226.368 304.677 231.588 308.605C236.808 312.533 250.511 311.818 251.956 309.441C253.4 307.065 247.854 297.106 247.854 297.106C247.854 297.106 235.992 298.762 234.587 297.822Z" fill="#FF8767"/>
<path d="M257.837 276.752L275.978 287.435C275.978 287.435 283.042 269.489 272.203 259.622C261.364 249.755 258.087 246.4 258.087 246.4L255.747 242.51L256.878 248.207L254.601 247.265L256.538 250.887C256.538 250.887 256.131 254.102 257.599 257.991C259.067 261.88 253.45 254.634 253.45 254.634C253.45 254.634 261.734 270.058 257.837 276.752Z" fill="#FF8767"/>
<path d="M259.18 274.962C259.18 274.962 251.28 281.449 254.789 286.631C258.299 291.812 265.568 302.779 269.643 300.273C273.717 297.767 279.976 289.528 276.33 286.435C272.685 283.342 259.18 274.962 259.18 274.962Z" fill="#FF8767"/>
<path d="M256.248 286.08C256.248 286.08 252.273 289.089 251.916 292.556C251.558 296.023 244.478 292.595 245.473 298.928C246.468 305.262 248.318 311.295 253.595 310.901C258.872 310.507 270.643 303.34 269.344 298.765C268.044 294.19 258.517 283.859 256.248 286.08Z" fill="#FF8767"/>
<path d="M224.528 296.761C224.528 296.761 219.269 288.883 221.349 286.641C223.43 284.4 224.189 284.617 224.689 286.695C225.188 288.773 226.946 293.146 226.946 293.146L224.528 296.761Z" fill="#FF8767"/>
<path d="M226.857 291.779C226.857 291.779 221.96 295.189 224.666 300.486C227.371 305.784 232.529 306.328 233.338 303.381C234.147 300.434 235.6 299.662 233.872 297.635C232.144 295.607 226.857 291.779 226.857 291.779Z" fill="#FF8767"/>
<path d="M266.409 260.028C265.91 260.775 264.9 260.975 264.153 260.475C263.406 259.976 263.206 258.966 263.705 258.219C264.205 257.473 265.215 257.272 265.962 257.772C266.708 258.271 266.909 259.281 266.409 260.028Z" fill="white"/>
<path d="M282.41 232.9C279.742 232.9 276.348 231.083 272.615 229.085C271.481 228.478 270.309 227.851 269.13 227.262C268.928 227.161 268.846 226.915 268.947 226.713C269.048 226.511 269.294 226.43 269.496 226.53C270.684 227.124 271.862 227.754 273.001 228.364C278.282 231.191 282.843 233.631 285.185 230.816C285.329 230.643 285.586 230.619 285.761 230.764C285.935 230.908 285.958 231.165 285.814 231.339C284.892 232.447 283.741 232.9 282.41 232.9Z" fill="#FF8767"/>
<path d="M256.878 248.616C256.713 248.616 256.558 248.516 256.496 248.353C252.626 238.207 249.623 228.373 253.808 225.143C258.562 221.834 264.405 223.988 269.496 226.53C269.697 226.631 269.779 226.877 269.678 227.079C269.577 227.281 269.332 227.362 269.13 227.262C264.255 224.826 258.679 222.75 254.291 225.802C250.535 228.702 253.683 238.682 257.26 248.061C257.34 248.273 257.234 248.508 257.023 248.589C256.975 248.607 256.926 248.616 256.878 248.616Z" fill="#FF8767"/>
<path d="M257.525 251.685C257.392 251.685 257.261 251.62 257.182 251.5C251.268 242.407 246.138 233.519 248.626 230.073C252.716 223.653 260.603 228.438 266.94 232.283C270.385 234.374 273.639 236.347 275.22 235.809C275.621 235.672 275.909 235.364 276.101 234.867C276.183 234.656 276.419 234.552 276.63 234.633C276.84 234.714 276.945 234.951 276.864 235.162C276.583 235.888 276.119 236.366 275.484 236.583C273.539 237.244 270.285 235.269 266.516 232.983C260.17 229.132 252.977 224.767 249.302 230.532C247.084 233.607 252.388 242.63 257.868 251.054C257.991 251.244 257.937 251.497 257.748 251.62C257.679 251.664 257.602 251.685 257.525 251.685Z" fill="#FF8767"/>
<path d="M237.767 275.003C237.767 275.003 237.267 263.2 240.938 264.465C244.609 265.729 244.989 268.005 244.989 268.005C244.989 268.005 249.533 268.235 247.254 270.534C244.976 272.834 237.79 276.281 237.767 275.003Z" fill="#FF8767"/>
<path d="M238.172 275.676C238.017 275.676 237.886 275.657 237.783 275.616C237.524 275.512 237.366 275.288 237.358 275.016C237.319 274.083 237.052 266.046 239.375 264.313C239.866 263.946 240.453 263.866 241.071 264.079C244.147 265.138 245.054 266.897 245.304 267.618C246.081 267.689 247.834 267.961 248.225 268.971C248.44 269.526 248.211 270.149 247.544 270.822C245.677 272.707 240.086 275.676 238.172 275.676ZM238.171 274.877C239.249 275.02 244.889 272.34 246.964 270.246C247.2 270.008 247.579 269.564 247.463 269.266C247.267 268.76 245.858 268.458 244.968 268.413C244.776 268.403 244.617 268.261 244.585 268.072C244.571 267.992 244.169 266.01 240.805 264.851C240.439 264.726 240.14 264.762 239.864 264.968C238.21 266.201 238.079 272.434 238.171 274.877Z" fill="white"/>
<path d="M239.426 292.014C239.426 292.014 227.897 291.795 229.375 298.677C230.852 305.559 242.514 314.648 245.367 313.732C248.22 312.817 250.733 300.795 250.733 300.795C250.733 300.795 239.907 293.772 239.426 292.014Z" fill="#FF8767"/>
<path d="M244.915 314.203C243.836 314.203 242.395 313.514 241.291 312.876C236.846 310.305 230.093 303.97 228.975 298.763C228.63 297.158 228.922 295.777 229.843 294.66C232.439 291.509 239.15 291.601 239.434 291.606C239.615 291.609 239.773 291.732 239.821 291.907C240.141 293.077 246.821 297.77 250.956 300.452C251.098 300.544 251.168 300.714 251.134 300.879C250.871 302.133 248.486 313.161 245.492 314.121C245.316 314.178 245.122 314.203 244.915 314.203ZM239.169 292.424C237.943 292.439 232.555 292.653 230.473 295.181C229.709 296.108 229.48 297.224 229.774 298.591C230.843 303.567 237.387 309.673 241.7 312.168C243.31 313.099 244.632 313.541 245.242 313.343C247.132 312.737 249.26 305.725 250.276 300.985C248.125 299.583 240.372 294.442 239.169 292.424Z" fill="white"/>
<path d="M273.225 291.269L280.456 312.769C280.456 312.769 298.872 303.143 297.011 287.461C295.149 271.778 294.849 266.733 294.849 266.733L295.689 261.915L292.589 267.351L291.4 264.978L290.422 269.293C290.422 269.293 287.821 271.624 286.272 275.826C284.723 280.028 285.263 270.165 285.263 270.165C285.263 270.165 281.122 288.569 273.225 291.269Z" fill="#FF8767"/>
<path d="M280.456 313.178C280.404 313.178 280.352 313.168 280.303 313.148C280.192 313.104 280.107 313.013 280.068 312.899L272.837 291.399C272.766 291.186 272.88 290.955 273.093 290.882C280.686 288.286 284.823 270.257 284.864 270.075C284.91 269.868 285.108 269.731 285.319 269.76C285.529 269.789 285.682 269.975 285.67 270.187C285.546 272.462 285.54 275.075 285.711 276.122C285.761 276.011 285.821 275.868 285.888 275.684C287.303 271.847 289.549 269.559 290.051 269.08L291.001 264.888C291.039 264.719 291.179 264.593 291.351 264.572C291.522 264.553 291.688 264.64 291.765 264.794L292.612 266.485L295.335 261.713C295.433 261.54 295.642 261.461 295.828 261.531C296.015 261.597 296.126 261.79 296.092 261.985L295.259 266.755C295.295 267.303 295.671 272.706 297.417 287.412C299.289 303.192 280.832 313.033 280.645 313.131C280.586 313.162 280.521 313.178 280.456 313.178ZM273.738 291.513L280.686 312.173C283.401 310.615 298.255 301.413 296.605 287.509C294.763 271.994 294.443 266.808 294.44 266.757C294.438 266.726 294.44 266.694 294.445 266.663L294.884 264.152L292.943 267.553C292.871 267.681 292.735 267.76 292.589 267.76C292.585 267.76 292.581 267.76 292.577 267.76C292.427 267.755 292.291 267.669 292.223 267.534L291.546 266.182L290.82 269.383C290.802 269.466 290.758 269.541 290.695 269.597C290.67 269.62 288.147 271.919 286.655 275.967C286.401 276.656 286.087 277.383 285.528 277.266C285.28 277.214 284.77 277.109 284.75 273.687C283.154 279.093 279.48 289.174 273.738 291.513Z" fill="white"/>
<path d="M275.582 290.759C275.582 290.759 264.572 290.465 263.772 297.161C262.973 303.856 261.151 317.915 266.238 318.75C271.323 319.585 282.233 317.294 281.448 312.204C280.663 307.113 275.582 290.759 275.582 290.759Z" fill="#FF8767"/>
<path d="M268.556 319.324C267.671 319.324 266.86 319.267 266.171 319.153C260.828 318.276 262.438 304.85 263.304 297.636L263.366 297.113C264.2 290.128 275.131 290.342 275.592 290.35C275.767 290.355 275.92 290.47 275.972 290.638C276.18 291.307 281.071 307.079 281.852 312.141C282.048 313.415 281.611 314.593 280.553 315.641C278.012 318.158 272.538 319.324 268.556 319.324ZM275.28 291.167C273.566 291.184 264.854 291.551 264.178 297.209L264.116 297.733C263.342 304.181 261.733 317.596 266.304 318.347C270.326 319.008 277.324 317.689 279.977 315.061C280.84 314.206 281.199 313.267 281.044 312.266C280.329 307.632 275.96 293.373 275.28 291.167Z" fill="white"/>
<path d="M265.348 297.742C265.348 297.742 259.988 297.386 257.251 299.957C254.513 302.527 251.168 294.739 247.509 300.598C243.849 306.457 241.097 312.674 245.672 316.078C250.246 319.482 264.888 321.953 267.058 317.311C269.229 312.669 268.763 297.535 265.348 297.742Z" fill="#FF8767"/>
<path d="M260.079 320.271C254.805 320.272 248.233 318.493 245.428 316.406C240.421 312.68 243.724 305.885 247.162 300.381C249.499 296.641 251.836 298.029 253.715 299.143C255.161 300.001 256.093 300.483 256.971 299.659C259.738 297.061 264.895 297.307 265.35 297.332C265.961 297.308 266.532 297.643 267.005 298.338C269.348 301.787 269.286 313.512 267.429 317.484C266.902 318.61 265.731 319.409 263.949 319.858C262.818 320.143 261.495 320.271 260.079 320.271ZM250.583 298.761C249.698 298.761 248.812 299.284 247.855 300.814C244.604 306.02 241.445 312.423 245.915 315.75C249.266 318.243 258.696 320.339 263.749 319.066C265.281 318.68 266.27 318.031 266.688 317.138C268.579 313.095 268.357 301.783 266.329 298.798C266.024 298.348 265.7 298.126 265.372 298.15C265.355 298.15 265.338 298.15 265.321 298.15C265.269 298.146 260.105 297.838 257.53 300.255C256.157 301.543 254.639 300.642 253.297 299.847C252.35 299.284 251.468 298.761 250.583 298.761Z" fill="white"/>
<path d="M231.985 284.052C231.985 284.052 233.263 273.926 236.539 273.57C239.815 273.213 240.28 273.926 239.22 275.97C238.16 278.014 236.505 282.815 236.505 282.815L231.985 284.052Z" fill="#FF8767"/>
<path d="M231.985 284.46C231.888 284.46 231.792 284.426 231.717 284.36C231.614 284.271 231.563 284.136 231.58 284C231.715 282.931 232.999 273.544 236.495 273.164C238.504 272.947 239.499 273.114 239.932 273.745C240.384 274.406 240.009 275.336 239.583 276.158C238.549 278.152 236.907 282.901 236.891 282.949C236.847 283.076 236.743 283.174 236.612 283.21L232.093 284.446C232.058 284.456 232.021 284.46 231.985 284.46ZM237.931 273.891C237.577 273.891 237.135 273.916 236.583 273.976C234.323 274.222 232.932 280.443 232.475 283.494L236.189 282.478C236.521 281.528 237.908 277.612 238.857 275.782C239.384 274.766 239.365 274.365 239.257 274.207C239.149 274.049 238.818 273.891 237.931 273.891Z" fill="white"/>
<path d="M237.397 281.64C237.397 281.64 231.004 280.96 229.468 287.182C227.932 293.405 231.748 297.488 234.486 295.66C237.224 293.831 238.952 294.228 238.976 291.358C239.001 288.487 237.397 281.64 237.397 281.64Z" fill="#FF8767"/>
<path d="M233.086 296.511C232.458 296.511 231.819 296.299 231.218 295.877C229.386 294.591 228.012 291.374 229.072 287.084C230.674 280.592 237.374 281.226 237.441 281.233C237.613 281.252 237.756 281.378 237.796 281.547C237.861 281.828 239.41 288.475 239.385 291.362C239.366 293.628 238.303 294.135 236.831 294.838C236.211 295.133 235.509 295.469 234.714 296C234.203 296.341 233.649 296.511 233.086 296.511ZM236.791 282.023C235.251 282.023 231.051 282.476 229.865 287.28C228.904 291.173 230.136 294.118 231.687 295.208C232.549 295.813 233.462 295.852 234.259 295.32C235.103 294.756 235.866 294.392 236.479 294.099C237.903 293.42 238.553 293.11 238.568 291.354C238.589 288.9 237.37 283.366 237.067 282.028C236.989 282.025 236.896 282.023 236.791 282.023Z" fill="white"/>
<path d="M292.007 283.702C291.073 283.958 290.109 283.408 289.854 282.474C289.599 281.541 290.148 280.577 291.082 280.322C292.015 280.066 292.979 280.616 293.234 281.55C293.49 282.483 292.94 283.447 292.007 283.702Z" fill="white"/>
<path d="M327.48 272.56C323.461 272.56 321.467 267.343 319.179 261.361C316.511 254.383 313.488 246.475 306.551 245.736C306.481 245.732 306.41 245.73 306.34 245.73C301.3 245.73 296.886 255.943 293.226 265.974C293.148 266.186 292.914 266.294 292.702 266.218C292.49 266.141 292.38 265.906 292.458 265.694C296.401 254.886 300.812 244.914 306.354 244.914C306.442 244.914 306.53 244.917 306.618 244.922C314.072 245.716 317.191 253.872 319.943 261.069C322.253 267.11 324.25 272.321 328.167 271.684C328.392 271.644 328.6 271.798 328.637 272.021C328.673 272.244 328.522 272.454 328.3 272.491C328.017 272.537 327.744 272.56 327.48 272.56Z" fill="#FF8767"/>
<path d="M317.035 269.635C316.752 269.635 316.475 269.581 316.206 269.472C314.17 268.645 312.916 264.746 311.463 260.231C309.625 254.516 307.541 248.038 303.508 246.229C303.302 246.137 303.21 245.895 303.302 245.689C303.394 245.483 303.636 245.391 303.842 245.484C308.208 247.441 310.351 254.103 312.242 259.981C313.573 264.121 314.832 268.032 316.514 268.714C316.945 268.89 317.406 268.842 317.922 268.568C318.121 268.46 318.369 268.537 318.475 268.737C318.581 268.936 318.505 269.184 318.306 269.289C317.872 269.52 317.447 269.635 317.035 269.635Z" fill="#FF8767"/>
<path d="M294.391 252.928C294.351 252.928 294.309 252.922 294.268 252.909C294.053 252.841 293.934 252.612 294.001 252.396C295.365 248.066 296.977 245.738 298.929 245.277C300.698 244.751 302.359 244.818 303.842 245.484C304.048 245.576 304.141 245.818 304.048 246.024C303.956 246.23 303.714 246.322 303.508 246.229C302.189 245.638 300.76 245.585 299.139 246.067C297.492 246.456 296.033 248.666 294.781 252.642C294.726 252.817 294.565 252.928 294.391 252.928Z" fill="#FF8767"/>
<path d="M291.203 269.199C291.185 269.199 291.166 269.197 291.147 269.195C290.923 269.164 290.767 268.958 290.798 268.734C291.85 261.129 292.838 256.091 294.001 252.396C294.069 252.181 294.298 252.062 294.514 252.129C294.729 252.197 294.849 252.426 294.781 252.642C293.632 256.291 292.653 261.288 291.608 268.846C291.579 269.051 291.404 269.199 291.203 269.199Z" fill="#FF8767"/>
<path d="M22.2869 284.51L22.7596 293.225L28.5868 294.208L29.1052 283.929L22.2869 284.51Z" fill="white"/>
<path d="M28.5869 294.617C28.5643 294.617 28.5414 294.615 28.5191 294.611L22.6918 293.628C22.5029 293.597 22.3616 293.438 22.3517 293.247L21.8791 284.532C21.867 284.311 22.0324 284.121 22.2522 284.103L29.0708 283.521C29.1885 283.51 29.3046 283.553 29.3894 283.634C29.4743 283.717 29.5199 283.831 29.5139 283.949L28.9954 294.229C28.9894 294.345 28.934 294.453 28.8429 294.526C28.7696 294.585 28.6791 294.617 28.5869 294.617ZM23.1499 292.876L28.2017 293.728L28.6735 284.376L22.7164 284.883L23.1499 292.876Z" fill="#272626"/>
<path d="M28.7491 308.945C26.2882 309.166 22.2653 309.668 17.5938 308.779C16.0665 308.488 15.1213 306.942 15.5684 305.452C16.816 301.296 19.003 293.4 22.2524 289.854L22.9564 291.59L24.0578 290.063C24.2147 289.811 24.482 289.649 24.7776 289.627L27.0935 289.451C27.5773 289.415 28.0082 289.755 28.084 290.235L28.1494 291.28L29.7031 289.772L30.0988 298.986C30.1758 300.782 30.3799 302.168 30.7095 303.935L31.1176 306.123C31.2333 307.554 30.179 308.817 28.7491 308.945Z" fill="white"/>
<path d="M23.2062 309.696C21.4841 309.696 19.5626 309.569 17.5177 309.18C16.6735 309.02 15.9338 308.507 15.4883 307.773C15.0448 307.042 14.9311 306.153 15.1766 305.335L15.4457 304.433C16.7226 300.139 18.8601 292.951 21.9509 289.578C22.0456 289.475 22.1863 289.426 22.3246 289.452C22.4626 289.476 22.5784 289.571 22.6311 289.7L23.0573 290.751L23.7264 289.824C23.9356 289.486 24.3227 289.251 24.7466 289.22L27.0625 289.044C27.7562 288.989 28.379 289.486 28.4876 290.171L28.5004 290.369L29.4184 289.478C29.5337 289.365 29.7049 289.332 29.8543 289.392C30.0035 289.451 30.1045 289.593 30.1114 289.754L30.5074 298.968C30.5844 300.764 30.7873 302.122 31.1116 303.86L31.5195 306.048C31.5218 306.062 31.5238 306.076 31.5251 306.09C31.6585 307.741 30.4294 309.205 28.7853 309.352L28.1319 309.413C26.8111 309.537 25.1333 309.696 23.2062 309.696ZM22.126 290.63C19.3866 294.048 17.4251 300.646 16.2292 304.667L15.9598 305.57C15.7778 306.176 15.8588 306.807 16.1873 307.348C16.5131 307.885 17.0534 308.26 17.6701 308.377C21.8909 309.181 25.6004 308.831 28.0552 308.599L28.7126 308.538C29.9049 308.431 30.7973 307.374 30.7117 306.176L30.3077 304.011C29.9852 302.281 29.7692 300.84 29.6907 299.004L29.3338 290.7L28.4336 291.574C28.3195 291.685 28.1506 291.718 28.0018 291.662C27.8529 291.604 27.751 291.465 27.7411 291.306L27.676 290.261C27.638 290.032 27.391 289.847 27.1243 289.859L24.8078 290.035C24.6426 290.047 24.4918 290.139 24.4043 290.279L23.2874 291.829C23.2008 291.95 23.0591 292.016 22.9074 291.996C22.7598 291.978 22.6333 291.882 22.5773 291.744L22.126 290.63Z" fill="#272626"/>
<path d="M23.4501 307.037C21.5198 307.037 19.3099 306.842 17.1301 306.228C16.913 306.167 16.7865 305.941 16.8475 305.724C16.9085 305.507 17.1377 305.38 17.3517 305.441C23.0082 307.034 29.0915 305.66 29.1527 305.645C29.3681 305.596 29.5921 305.731 29.6428 305.951C29.6939 306.171 29.557 306.391 29.337 306.441C29.1761 306.479 26.7128 307.037 23.4501 307.037Z" fill="#272626"/>
<path d="M26.5096 300.582C26.5072 300.582 26.5047 300.582 26.5024 300.582L20.9987 300.486C20.7731 300.482 20.5931 300.296 20.5971 300.07C20.6011 299.844 20.7866 299.682 21.0131 299.668L26.5168 299.764C26.7423 299.768 26.9223 299.954 26.9183 300.18C26.9144 300.403 26.7324 300.582 26.5096 300.582Z" fill="#272626"/>
<path d="M49.9756 281.278L50.2161 293.974L57.2696 294.33L58.2356 281.695L49.9756 281.278Z" fill="white"/>
<path d="M57.2699 294.738C57.2627 294.738 57.2559 294.738 57.2489 294.738L50.1952 294.382C49.9808 294.372 49.8113 294.196 49.8073 293.982L49.567 281.286C49.565 281.173 49.6102 281.064 49.6912 280.985C49.7726 280.906 49.8768 280.861 49.9965 280.87L58.2563 281.287C58.3661 281.292 58.4695 281.342 58.5422 281.425C58.6153 281.507 58.6516 281.616 58.6431 281.726L57.6771 294.361C57.6607 294.575 57.4823 294.738 57.2699 294.738ZM50.6175 293.585L56.8923 293.901L57.7961 282.082L50.3929 281.709L50.6175 293.585Z" fill="#272626"/>
<path d="M48.0133 301.023C47.9351 302.219 48.6998 303.311 49.852 303.641C53.8595 304.79 62.8881 307.351 65.4742 307.871C68.8306 308.545 73.0392 307.718 74.9256 305.83C76.812 303.943 71.2622 298.928 68.602 297.071C64.6499 294.312 60.9842 289.069 59.3518 288.759C57.7194 288.449 54.4103 293.064 54.4103 293.064L49.5004 290.704C49.5004 290.704 48.4094 294.958 48.0133 301.023Z" fill="white"/>
<path d="M67.9061 308.512C67.0551 308.512 66.2057 308.435 65.3933 308.271C62.8811 307.767 54.5073 305.4 49.7393 304.034C48.4125 303.654 47.5152 302.376 47.6054 300.996C47.9994 294.963 49.0934 290.645 49.1042 290.602C49.1347 290.484 49.2167 290.385 49.3278 290.333C49.4389 290.282 49.5665 290.282 49.6775 290.335L54.2803 292.548C55.1638 291.356 57.7829 288.036 59.428 288.357C60.3757 288.537 61.6504 289.875 63.4151 291.727C65.0477 293.441 66.8983 295.383 68.8358 296.735C70.9818 298.233 75.4856 302.142 75.7086 304.664C75.7604 305.25 75.5941 305.739 75.2145 306.119C73.7263 307.609 70.8088 308.512 67.9061 308.512ZM49.7812 291.292C49.4918 292.571 48.7338 296.259 48.4213 301.05C48.3558 302.049 49.0049 302.973 49.9645 303.249C53.7932 304.345 62.9772 306.952 65.5546 307.47C68.8969 308.142 72.8853 307.294 74.6363 305.541C74.8423 305.335 74.9245 305.079 74.8943 304.737C74.7235 302.806 70.9944 299.239 68.368 297.406C66.3634 296.007 64.4825 294.033 62.8233 292.292C61.3532 290.749 59.9649 289.291 59.2755 289.16C58.3188 288.98 56.0535 291.474 54.7422 293.302C54.6265 293.462 54.4133 293.518 54.2328 293.432L49.7812 291.292Z" fill="#272626"/>
<path d="M68.1297 305.257C61.336 305.257 51.1456 301.535 50.6072 301.336C50.3954 301.257 50.287 301.022 50.365 300.811C50.4436 300.599 50.6791 300.492 50.8898 300.569C51.0527 300.629 67.2061 306.532 72.0991 303.669C72.2931 303.554 72.5437 303.62 72.6583 303.815C72.7721 304.01 72.7066 304.26 72.5118 304.374C71.4343 305.005 69.8959 305.257 68.1297 305.257Z" fill="#272626"/>
<path d="M59.8522 298.113C59.7332 298.113 59.6155 298.061 59.5349 297.962C59.3923 297.787 59.4188 297.53 59.5936 297.387L63.3446 294.332C63.5203 294.189 63.778 294.217 63.9197 294.391C64.0622 294.566 64.0358 294.823 63.861 294.966L60.11 298.021C60.0342 298.083 59.9428 298.113 59.8522 298.113Z" fill="#272626"/>
<path d="M24.6784 197.318C24.6784 197.318 20.4985 236.757 18.6662 250.352C16.8338 263.947 19.5457 286.086 19.5457 286.086L30.4622 286.063C30.4622 286.063 32.0044 266.417 33.189 256.198C33.4795 253.692 34.1732 251.253 35.2257 248.96C36.879 245.358 39.4706 239.154 40.6567 233.344C42.4716 224.453 47.8282 210.536 47.8282 210.536C47.8282 210.536 48.037 281.358 48.1205 286.925C48.1205 286.925 56.639 287.736 59.7971 285.964C59.7971 285.964 66.5194 260.483 66.4472 246.432C66.3751 232.38 68.986 197.609 68.986 197.609L24.6784 197.318Z" fill="white"/>
<path d="M52.433 287.522C50.1338 287.522 48.2458 287.348 48.0817 287.332C47.8741 287.312 47.7148 287.14 47.7116 286.931C47.6374 281.987 47.4625 224.881 47.4261 212.777C45.8709 217.003 42.4273 226.712 41.057 233.426C39.8375 239.398 37.1128 245.829 35.5972 249.131C34.5518 251.408 33.878 253.802 33.5945 256.245C32.4245 266.339 30.8846 285.898 30.8695 286.095C30.8528 286.307 30.6758 286.471 30.4627 286.472L19.5464 286.495C19.5461 286.495 19.5461 286.495 19.5455 286.495C19.3393 286.495 19.1652 286.341 19.14 286.136C19.1128 285.914 16.4425 263.789 18.2611 250.297C20.0717 236.864 24.2302 197.669 24.2722 197.275C24.2941 197.067 24.4698 196.909 24.6786 196.909C24.6793 196.909 24.6802 196.909 24.6815 196.909L68.9887 197.201C69.1017 197.201 69.2099 197.249 69.2864 197.332C69.3631 197.416 69.4018 197.527 69.3933 197.64C69.3674 197.987 66.7844 232.555 66.8558 246.43C66.9277 260.374 60.2597 285.814 60.1922 286.069C60.1638 286.176 60.0936 286.267 59.9971 286.321C58.2675 287.291 55.0781 287.522 52.433 287.522ZM48.5243 286.549C50.1434 286.674 56.702 287.078 59.4467 285.688C60.0335 283.426 66.1067 259.669 66.0385 246.434C65.9715 233.378 68.2454 202.085 68.546 198.015L25.046 197.729C24.6165 201.768 20.7893 237.662 19.0718 250.407C17.3942 262.852 19.5727 282.759 19.9091 285.676L30.0845 285.655C30.3049 282.88 31.7011 265.482 32.7829 256.151C33.0763 253.622 33.7733 251.145 34.8542 248.79C36.3554 245.52 39.0534 239.154 40.2565 233.262C42.0571 224.44 47.3932 210.529 47.4466 210.39C47.5177 210.206 47.7082 210.098 47.9024 210.135C48.0955 210.17 48.2365 210.339 48.2368 210.535C48.239 211.23 48.4388 278.847 48.5243 286.549Z" fill="#272626"/>
<path d="M28.4635 252.651C27.4108 252.651 26.363 252.351 25.4654 251.768C25.2762 251.645 25.2222 251.392 25.3451 251.203C25.469 251.013 25.7219 250.96 25.9107 251.082C27.1297 251.875 28.6733 252.053 30.0404 251.56C30.2539 251.482 30.4876 251.593 30.5637 251.805C30.6404 252.018 30.5306 252.252 30.3182 252.329C29.719 252.545 29.0902 252.651 28.4635 252.651Z" fill="#272626"/>
<path d="M25.9476 209.12C25.7408 209.12 25.5637 208.964 25.5417 208.754C25.5181 208.529 25.681 208.328 25.9053 208.305C27.6376 208.123 29.6974 206.894 30.2842 203.987C30.3284 203.766 30.5425 203.621 30.766 203.667C30.9872 203.712 31.1305 203.928 31.0857 204.149C30.4111 207.49 28.0113 208.906 25.9908 209.118C25.9759 209.119 25.9616 209.12 25.9476 209.12Z" fill="#272626"/>
<path d="M54.4027 274.09C54.3932 274.09 54.384 274.09 54.3743 274.09C54.1487 274.074 53.9792 273.879 53.9943 273.654C54.445 267.111 62.2118 255.75 62.5423 255.27C62.6705 255.084 62.9252 255.037 63.1108 255.164C63.2967 255.292 63.3439 255.547 63.2162 255.733C63.1363 255.849 55.2449 267.39 54.8102 273.71C54.7951 273.926 54.616 274.09 54.4027 274.09Z" fill="#272626"/>
<path d="M65.1566 141.057C67.5463 134.173 71.0678 135.115 73.6028 137.117C75.4249 138.557 76.6498 140.631 77.0604 142.917C77.3992 144.803 78.0959 147.551 79.5035 150.114C82.1377 154.912 91.8758 156.842 95.2726 156.829C96.7549 156.823 100.73 152.066 103.282 152.872C105.116 153.451 101.697 156.361 102.125 156.57C103.712 157.347 105.219 157.18 106.657 157.174C108.992 157.164 111.076 156.532 111.95 156.527C113.056 156.521 113.427 157.653 112.969 158.661C112.314 160.101 110.884 162.282 108.522 163.043C104.297 164.405 97.073 163.13 94.5524 162.641C92.6327 162.268 70.0105 163.672 67.1302 154.233C66.5311 152.269 64.151 143.955 65.1566 141.057Z" fill="white"/>
<path d="M103.676 164.058C100.362 164.058 96.7888 163.492 94.4749 163.042C94.2031 162.989 93.3196 162.974 92.2016 162.955C85.9236 162.849 69.2461 162.566 66.7397 154.352C66.2217 152.655 63.6925 144.029 64.7707 140.923C65.8644 137.773 67.317 135.913 69.088 135.396C70.5381 134.974 72.1441 135.444 73.8564 136.796C75.75 138.293 77.0309 140.441 77.4629 142.844C77.7923 144.678 78.4759 147.393 79.8619 149.917C82.3879 154.518 91.9151 156.414 95.2712 156.42C95.7122 156.418 96.7484 155.634 97.6627 154.942C99.4378 153.599 101.647 151.923 103.405 152.483C103.92 152.645 104.115 152.958 104.189 153.192C104.44 153.998 103.629 155.042 102.978 155.882C102.865 156.027 102.727 156.205 102.625 156.348C103.783 156.82 104.92 156.798 106.02 156.775C106.233 156.77 106.445 156.766 106.656 156.765C108.07 156.759 109.425 156.513 110.415 156.333C111.067 156.214 111.581 156.121 111.948 156.119C111.952 156.119 111.956 156.119 111.96 156.119C112.531 156.119 113.004 156.363 113.292 156.807C113.643 157.349 113.662 158.125 113.341 158.83C112.847 159.918 111.399 162.546 108.647 163.433C107.236 163.887 105.495 164.058 103.676 164.058ZM65.5426 141.192C64.5272 144.118 67.2119 153.099 67.5211 154.114C69.8543 161.759 86.0998 162.034 92.2153 162.138C93.5077 162.16 94.2882 162.173 94.6302 162.24C98.1377 162.921 104.589 163.88 108.396 162.654C110.837 161.868 112.147 159.481 112.597 158.491C112.801 158.044 112.804 157.558 112.606 157.251C112.47 157.042 112.253 156.936 111.96 156.936C111.958 156.936 111.955 156.936 111.952 156.936C111.657 156.938 111.149 157.03 110.561 157.137C109.542 157.322 108.145 157.576 106.659 157.582C106.453 157.583 106.246 157.588 106.037 157.592C104.734 157.619 103.391 157.645 101.945 156.938C101.816 156.875 101.724 156.759 101.691 156.619C101.618 156.301 101.857 155.993 102.332 155.38C102.752 154.84 103.532 153.834 103.408 153.436C103.386 153.366 103.302 153.307 103.16 153.262C101.801 152.834 99.7809 154.364 98.156 155.594C96.945 156.511 95.9881 157.235 95.2744 157.237C95.262 157.237 95.2485 157.237 95.2361 157.237C91.586 157.238 81.863 155.261 79.145 150.311C77.7064 147.69 76.9987 144.882 76.6583 142.989C76.2619 140.782 75.0867 138.811 73.3495 137.438C71.8562 136.258 70.4983 135.836 69.3172 136.18C67.8147 136.619 66.545 138.305 65.5426 141.192Z" fill="#272626"/>
<path d="M18.0728 151.063C18.0728 151.063 16.5557 127.8 30.3785 122.743C43.6859 117.874 61.2841 117.769 70.7851 124.064C75.476 127.172 79.7489 146.178 79.7489 146.178L72.2843 154.62C72.2843 154.62 72.7174 196.428 70.1581 207.331C70.1581 207.331 57.7475 208.148 52.6184 205.823C47.4893 203.498 30.4285 199.743 22.013 203.107L26.1688 150.412L18.0728 151.063Z" fill="#272626"/>
<path d="M33.8993 193.212C33.6961 193.212 33.52 193.061 33.4941 192.854C33.4662 192.63 33.625 192.426 33.8489 192.398C53.6203 189.922 59.993 176.669 60.0547 176.536C60.1501 176.331 60.3933 176.241 60.5976 176.337C60.8024 176.433 60.8914 176.676 60.7963 176.88C60.7321 177.018 54.1658 190.678 33.9502 193.209C33.9333 193.211 33.916 193.212 33.8993 193.212Z" fill="white"/>
<path d="M71.4516 169.07L50.4071 169.744C49.7321 169.766 49.2427 169.108 49.4574 168.468L58.0819 142.767C58.2108 142.383 58.5647 142.12 58.9695 142.107L80.014 141.432C80.689 141.411 81.1784 142.069 80.9637 142.709L72.3392 168.41C72.2103 168.793 71.8562 169.057 71.4516 169.07Z" fill="white"/>
<path d="M50.3765 170.153C49.9414 170.153 49.5307 169.948 49.2704 169.598C49.0013 169.236 48.9268 168.765 49.07 168.337L57.6944 142.637C57.8767 142.094 58.3838 141.716 58.9565 141.698L80.0009 141.024C80.4556 140.999 80.8814 141.217 81.1505 141.578C81.4196 141.94 81.4945 142.411 81.3512 142.839L72.7269 168.539C72.5446 169.083 72.0371 169.46 71.4647 169.478L50.4204 170.152C50.4056 170.153 50.3907 170.153 50.3765 170.153ZM80.0459 141.841C80.0396 141.841 80.0331 141.841 80.0272 141.841L58.9828 142.515C58.7497 142.522 58.5433 142.676 58.4695 142.897L49.8451 168.597C49.7855 168.774 49.8156 168.961 49.9265 169.11C50.0379 169.26 50.2267 169.341 50.3939 169.336L71.4383 168.661C71.671 168.653 71.8773 168.5 71.9516 168.279L80.576 142.578C80.635 142.402 80.6055 142.215 80.4946 142.066C80.3872 141.922 80.2243 141.841 80.0459 141.841Z" fill="#272626"/>
<path d="M20.4328 149.882L31.6428 149.377C31.6428 149.377 31.727 158.817 32.7385 158.985C36.3419 159.586 43.8884 159.616 48.7997 159.023C50.51 158.817 51.8644 157.508 52.186 155.815C52.4288 154.537 53.1209 153.036 54.8768 151.955C56.5739 150.911 54.9002 154.197 56.4873 156.313C57.34 157.45 60.0391 156.946 63.7199 156.093C67.4007 155.241 68.3354 159.174 64.2102 161.551C59.7381 164.128 56.8964 163.839 55.4705 164.14C52.6297 164.742 27.5129 168.678 23.6359 166.571C20.6403 164.943 20.4328 149.882 20.4328 149.882Z" fill="white"/>
<path d="M28.5058 167.598C26.1447 167.598 24.3181 167.407 23.4404 166.93C20.3249 165.237 20.0454 151.454 20.024 149.888C20.0207 149.668 20.1937 149.484 20.4144 149.474L31.6244 148.968C31.731 148.962 31.8435 149.004 31.9238 149.08C32.0044 149.156 32.0503 149.262 32.0516 149.373C32.087 153.367 32.4112 157.964 32.8762 158.594C36.5341 159.188 43.9206 159.201 48.7505 158.617C50.273 158.434 51.4925 157.277 51.7843 155.739C52.1167 153.99 53.1123 152.561 54.6623 151.607C54.9433 151.434 55.3583 151.229 55.718 151.431C56.1426 151.67 56.1379 152.223 56.1314 152.989C56.1239 153.894 56.1134 155.134 56.814 156.068C57.5264 157.016 60.4435 156.433 63.6274 155.695C65.6563 155.224 66.7828 156.082 67.1604 157.041C67.6678 158.329 67.0247 160.401 64.4141 161.905C60.8224 163.975 58.295 164.231 56.6225 164.401C56.2018 164.444 55.838 164.481 55.5547 164.541C54.1338 164.841 37.4755 167.598 28.5058 167.598ZM20.8482 150.273C20.9396 154.66 21.6163 165.009 23.8308 166.212C27.5446 168.23 52.4927 164.353 55.3855 163.741C55.712 163.672 56.0956 163.633 56.5399 163.588C58.1433 163.425 60.5657 163.18 64.0063 161.197C66.1969 159.935 66.7828 158.313 66.4001 157.341C66.0772 156.522 65.0861 156.196 63.8119 156.492C59.969 157.381 57.1722 157.907 56.1602 156.558C55.2937 155.403 55.306 153.946 55.3141 152.982C55.3164 152.718 55.3193 152.377 55.2905 152.196C55.2439 152.216 55.1787 152.249 55.0909 152.303C53.7221 153.145 52.8799 154.353 52.5872 155.892C52.2283 157.781 50.7259 159.202 48.8486 159.429C43.9246 160.023 36.366 160.005 32.6713 159.389C32.3421 159.334 31.3508 159.168 31.2383 149.804L20.8482 150.273Z" fill="#272626"/>
<path d="M52.4308 113.385C51.2819 114.335 49.0736 115.454 47.4362 114.523C46.2169 113.83 45.6007 112.163 45.7382 110.295C45.1568 110.314 44.3992 110.235 43.8815 109.728C43.0845 108.949 43.3091 107.6 43.3865 106.71C43.7447 102.603 41.3862 101.851 42.1118 99.0885C42.682 96.917 44.4719 95.6964 44.8064 95.4682C46.4962 94.3156 47.5786 94.7698 50.3506 94.1909C55.0156 93.2171 55.2624 91.24 58.2963 91.3838C58.4718 91.3922 62.5976 91.6459 63.8551 94.5685C64.8776 96.9456 63.4043 99.6978 61.9535 101.11C60.0749 102.938 58.8433 101.925 56.9737 103.444C53.6919 106.11 55.844 110.563 52.4308 113.385Z" fill="#272626"/>
<path d="M61.8799 105.598C60.9688 104.728 60.005 103.008 59.7077 101.784C58.6225 97.3152 54.5644 96.4904 54.1442 100.838C54.0323 101.996 49.7969 101.722 50.2384 102.966C51.3897 106.208 51.4615 105.355 49.5519 106.432C49.3417 106.43 49.1316 106.465 48.9304 106.547C47.9591 106.941 47.558 108.213 48.035 109.387C48.3245 110.099 48.8717 110.607 49.4734 110.812L49.2203 115.83C49.1255 117.711 47.9022 119.348 46.1251 119.972L44.396 120.579C44.396 120.579 52.0368 126.134 60.3415 120.877L59.2953 120.343C57.4532 119.403 56.3091 117.493 56.3482 115.425L56.3888 114.444C56.9256 114.519 57.4498 114.509 57.939 114.393C60.2151 113.853 61.0903 111.307 60.8708 108.074L61.8607 107.174C62.3233 106.754 62.3321 106.03 61.8799 105.598Z" fill="white"/>
<path d="M52.8097 123.531C47.845 123.531 44.209 120.948 44.1559 120.909C44.0329 120.82 43.9699 120.67 43.9919 120.52C44.0138 120.369 44.1175 120.244 44.261 120.193L45.9902 119.586C47.618 119.015 48.7257 117.532 48.8123 115.81L49.051 111.079C48.4375 110.78 47.9386 110.233 47.6567 109.54C47.3905 108.885 47.3525 108.178 47.5501 107.551C47.7569 106.897 48.1924 106.405 48.7772 106.168C48.986 106.083 49.209 106.035 49.4426 106.025C49.7535 105.853 50.0071 105.734 50.2147 105.636C50.4019 105.548 50.6139 105.448 50.6546 105.398C50.669 105.298 50.4913 104.825 50.2861 104.279C50.1668 103.961 50.0215 103.575 49.8538 103.102C49.7659 102.855 49.7819 102.611 49.9 102.396C50.1981 101.855 51.0445 101.663 52.0247 101.441C52.5723 101.317 53.7128 101.058 53.738 100.798C53.9239 98.8704 54.8306 97.6629 56.1624 97.5684C57.617 97.461 59.4161 98.8489 60.1049 101.687C60.3879 102.853 61.3304 104.509 62.1622 105.303C62.4595 105.587 62.6271 105.985 62.6221 106.396C62.6172 106.806 62.4401 107.201 62.1359 107.477L61.2913 108.245C61.49 111.87 60.3085 114.251 58.0337 114.79C57.6413 114.884 57.2213 114.918 56.7794 114.893L56.7568 115.442C56.7213 117.331 57.7907 119.116 59.4814 119.979L60.5276 120.513C60.6581 120.579 60.743 120.711 60.7499 120.858C60.7567 121.005 60.6843 121.144 60.5603 121.222C57.8376 122.946 55.1731 123.531 52.8097 123.531ZM45.3341 120.683C47.3057 121.811 53.1818 124.5 59.4996 120.906L59.1092 120.707C57.1421 119.702 55.898 117.626 55.9394 115.417L55.9804 114.427C55.9853 114.311 56.0384 114.204 56.1269 114.13C56.2155 114.056 56.3289 114.023 56.4455 114.039C56.9508 114.109 57.4231 114.095 57.845 113.994C60.5258 113.359 60.569 109.662 60.4631 108.102C60.4547 107.977 60.5038 107.856 60.5962 107.772L61.5856 106.872C61.7246 106.745 61.8023 106.573 61.8047 106.385C61.8067 106.198 61.7332 106.023 61.5975 105.894C60.6395 104.979 59.6348 103.216 59.3102 101.88C58.7342 99.5076 57.2969 98.2972 56.2198 98.3835C55.3196 98.4474 54.6958 99.3794 54.5509 100.876C54.4686 101.725 53.3179 101.986 52.2046 102.238C51.7141 102.349 50.6929 102.58 50.6143 102.793C50.789 103.295 50.9329 103.677 51.0506 103.991C51.6062 105.47 51.738 105.821 50.5621 106.375C50.347 106.476 50.0795 106.602 49.7526 106.787C49.69 106.822 49.6061 106.837 49.5487 106.84C49.3759 106.834 49.2264 106.867 49.0844 106.925C48.7291 107.069 48.4613 107.379 48.3295 107.797C48.1886 108.243 48.2186 108.753 48.4138 109.232C48.6458 109.804 49.0911 110.25 49.6054 110.425C49.7778 110.484 49.8908 110.65 49.8817 110.832L49.6286 115.85C49.5252 117.906 48.2032 119.675 46.2604 120.357L45.3341 120.683Z" fill="#272626"/>
<path d="M56.3894 114.853C56.3622 114.853 56.3343 114.85 56.3068 114.844C53.0619 114.178 51.7168 111.605 51.6613 111.496C51.5587 111.294 51.6386 111.048 51.8397 110.946C52.0413 110.844 52.2865 110.923 52.3894 111.123C52.409 111.162 53.6325 113.46 56.4713 114.043C56.6925 114.089 56.8349 114.305 56.7893 114.526C56.7499 114.72 56.5795 114.853 56.3894 114.853Z" fill="#272626"/>
<path d="M10.2214 83.1605C10.1643 83.1605 10.106 83.1486 10.0505 83.123C9.8457 83.0284 9.75588 82.7857 9.85056 82.5805C12.0304 77.8501 14.5111 73.2149 17.2243 68.8046C17.342 68.6122 17.5931 68.5522 17.7868 68.6708C17.9788 68.7889 18.0389 69.0409 17.9205 69.2333C15.2245 73.6158 12.7594 78.2216 10.5931 82.9231C10.5239 83.0723 10.3762 83.1605 10.2214 83.1605Z" fill="#333333"/>
<path d="M27.7579 55.1267C27.676 55.1267 27.5939 55.1024 27.5219 55.0513C27.3374 54.9208 27.2944 54.6658 27.4249 54.4818C42.8485 32.7257 67.4108 19.1546 85.3001 11.6004C104.669 3.4212 120.612 0.337624 120.771 0.307204C120.993 0.265624 121.206 0.41106 121.248 0.63246C121.291 0.85404 121.145 1.06788 120.923 1.11036C120.765 1.14025 104.893 4.21194 85.6005 12.3607C67.8149 19.873 43.4006 33.3608 28.0914 54.9543C28.012 55.0668 27.886 55.1267 27.7579 55.1267Z" fill="#333333"/>
<path d="M62.8782 14.9876C62.731 14.9876 62.5891 14.9082 62.5157 14.7689C62.4107 14.5689 62.4878 14.3218 62.6878 14.2169C68.1088 11.37 73.8037 8.89607 79.6139 6.86261C79.8283 6.78953 80.0601 6.90095 80.1348 7.11371C80.209 7.32683 80.0968 7.55993 79.8837 7.63463C74.1109 9.65441 68.4537 12.1125 63.0677 14.941C63.0071 14.9725 62.9421 14.9876 62.8782 14.9876Z" fill="#333333"/>
<path d="M1.22928 83.1605C1.18266 83.1605 1.1355 83.1526 1.08924 83.1356C0.876837 83.0582 0.767941 82.8235 0.845341 82.6115C0.880081 82.5161 4.41276 72.9574 12.5543 60.523C20.0666 49.0494 33.158 32.6984 52.861 19.9596C53.0506 19.8363 53.3033 19.8914 53.4262 20.0809C53.5488 20.2705 53.4944 20.5235 53.3049 20.6461C33.7308 33.3017 20.7202 49.5484 13.2526 60.9494C5.15634 73.3094 1.6476 82.7976 1.6134 82.8917C1.55274 83.0579 1.39614 83.1605 1.22928 83.1605Z" fill="#333333"/>
<path d="M87.8831 7.65731C85.8545 7.65731 84.2044 6.00725 84.2044 3.97865C84.2044 1.95005 85.8545 0.299988 87.8831 0.299988C89.9117 0.299988 91.5617 1.95023 91.5617 3.97865C91.5617 6.00725 89.9117 7.65731 87.8831 7.65731ZM87.8831 1.11755C86.3055 1.11755 85.0218 2.40131 85.0218 3.97883C85.0218 5.55634 86.3055 6.84011 87.8831 6.84011C89.4606 6.84011 90.7443 5.55634 90.7443 3.97883C90.7442 2.40113 89.4606 1.11755 87.8831 1.11755Z" fill="#333333"/>
<path d="M255.827 329.7C255.636 329.7 255.465 329.565 255.427 329.37C255.383 329.149 255.527 328.934 255.749 328.89C282.965 323.525 300.321 311.525 310.089 302.403C320.658 292.532 324.845 283.84 324.886 283.754C324.983 283.55 325.227 283.463 325.43 283.559C325.634 283.656 325.721 283.899 325.624 284.104C325.583 284.192 321.328 293.024 310.647 303C300.801 312.195 283.313 324.29 255.907 329.692C255.88 329.698 255.854 329.7 255.827 329.7Z" fill="#333333"/>
<path d="M304.659 316.825C304.513 316.825 304.372 316.747 304.299 316.61C304.192 316.411 304.266 316.163 304.465 316.056C322.406 306.417 334.297 285.776 334.416 285.569C334.527 285.373 334.778 285.303 334.973 285.416C335.169 285.528 335.238 285.777 335.126 285.974C335.007 286.183 322.998 307.027 304.852 316.776C304.79 316.809 304.724 316.825 304.659 316.825Z" fill="#333333"/>
<path d="M328.307 281.791C326.399 281.791 324.846 280.239 324.846 278.331C324.846 276.423 326.399 274.871 328.307 274.871C328.532 274.871 328.715 275.053 328.715 275.279C328.715 275.505 328.532 275.688 328.307 275.688C326.849 275.688 325.664 276.874 325.664 278.331C325.664 279.788 326.849 280.973 328.307 280.973C329.764 280.973 330.949 279.788 330.949 278.331C330.949 278.105 331.132 277.922 331.358 277.922C331.584 277.922 331.767 278.105 331.767 278.331C331.767 280.238 330.215 281.791 328.307 281.791Z" fill="#333333"/>
</g>
<defs>
<clipPath id="clip0_4_27">
<rect width="334.359" height="329.4" fill="white" transform="translate(0.820427 0.299988)"/>
</clipPath>
</defs>
</svg>
