<svg width="112" height="100" viewBox="0 0 112 100" fill="none" xmlns="http://www.w3.org/2000/svg">
<rect x="0.686768" width="111.313" height="100" rx="10" fill="#EBEDFC"/>
<rect x="1.18677" y="0.5" width="110.313" height="99" rx="9.5" stroke="#414073" stroke-opacity="0.11"/>
<path d="M94.341 87.4991L71.7276 80.46C70.0643 79.9423 68.6101 78.9063 67.5774 77.5033C66.5447 76.1003 65.9877 74.4039 65.9877 72.6619V61.7319H45.5534V72.6619C45.5534 74.4039 44.9964 76.1003 43.9637 77.5033C42.9311 78.9063 41.4769 79.9423 39.8136 80.46L17.2001 87.4991C17.2001 87.4991 10.6031 90.2628 9.1767 98.8211H102.962C102.962 98.8211 100.697 90.4411 94.341 87.4991Z" fill="#F8D197"/>
<path d="M53.3055 73.3579C60.5934 72.0876 65.9877 63.644 65.9877 63.644C65.9877 63.644 58.76 63.049 54.2398 61.732H45.5533V72.6618C45.5526 73.2926 45.4787 73.9212 45.3332 74.535L45.333 74.5465C45.333 74.5465 46.0176 74.6283 53.3055 73.3579Z" fill="#D8A353"/>
<path d="M73.1077 38.4171C72.658 38.3294 72.1946 38.3401 71.7494 38.4486C70.1645 27.506 63.5881 19.2999 55.7125 19.2999C47.815 19.2999 41.2229 27.5511 39.6614 38.5393C39.1294 38.355 38.5585 38.3129 38.0053 38.4171C35.5666 38.9019 34.1734 42.231 34.8935 45.8528C35.5883 49.3479 37.9971 51.8297 40.3563 51.564C42.6721 60.1413 45.7879 66.7364 51.7602 67.8447C53.3656 68.1426 54.792 67.1974 56.0691 67.1974C57.3328 67.1974 58.8601 68.2837 59.9181 67.9028C66.3232 65.5969 68.9584 60.1301 71.1399 51.5838C73.3716 51.5576 75.5624 49.1585 76.2196 45.8528C76.9396 42.231 75.5464 38.9019 73.1077 38.4171Z" fill="#F8D197"/>
<path d="M52.2357 36.9515C51.4313 37.1783 50.6038 37.3133 49.7691 37.3539C49.361 37.3801 48.9543 37.3883 48.5483 37.3853C48.4467 37.3864 48.3454 37.3823 48.2441 37.3794C48.141 37.3758 48.0407 37.3732 47.9545 37.3735C47.7742 37.368 47.594 37.3696 47.414 37.3785C46.6848 37.4078 45.9609 37.5153 45.2546 37.6992C45.073 37.7445 44.8925 37.7983 44.709 37.8531C44.5173 37.9148 44.3166 37.9764 44.1176 38.0321C43.7105 38.1488 43.2951 38.2346 42.875 38.2888C43.1504 37.967 43.4498 37.6665 43.7704 37.3897C43.9281 37.2533 44.0829 37.1208 44.2486 36.9919C44.4238 36.8568 44.6079 36.7337 44.7995 36.6232C45.5806 36.1755 46.4591 35.9253 47.3588 35.8942C47.5837 35.8909 47.8089 35.8914 48.033 35.9105C48.1491 35.9207 48.2508 35.9325 48.3496 35.9445C48.4503 35.9564 48.551 35.9672 48.6514 35.9831C49.0534 36.0396 49.4546 36.1071 49.8545 36.1927C50.6743 36.355 51.4731 36.6095 52.2357 36.9515ZM58.9889 36.9515C59.7514 36.6095 60.5502 36.355 61.37 36.1927C61.7699 36.1071 62.1711 36.0396 62.5731 35.9831C62.6735 35.9672 62.7742 35.9564 62.8749 35.9445C62.9737 35.9325 63.0754 35.9207 63.1915 35.9105C63.4156 35.8914 63.6408 35.8909 63.8657 35.8942C64.7654 35.9253 65.6439 36.1755 66.425 36.6232C66.6166 36.7337 66.8007 36.8568 66.9759 36.9919C67.1416 37.1208 67.2965 37.2533 67.4541 37.3897C67.7748 37.6665 68.0741 37.967 68.3495 38.2888C67.9294 38.2346 67.5141 38.1488 67.1069 38.0321C66.9079 37.9764 66.7072 37.9148 66.5155 37.8531C66.332 37.7983 66.1515 37.7445 65.9699 37.6992C65.2636 37.5154 64.5397 37.4078 63.8105 37.3785C63.6306 37.3699 63.4505 37.3682 63.27 37.3735C63.1838 37.3732 63.0835 37.3758 62.9804 37.3794C62.8791 37.3823 62.7778 37.3864 62.6762 37.3853C62.2703 37.3883 61.8635 37.3801 61.4554 37.3539C60.6207 37.3133 59.7932 37.1783 58.9889 36.9515Z" fill="#382810"/>
<path d="M74.9977 44.9948C75.2701 42.8632 74.7973 41.0466 73.9416 40.9373C73.086 40.828 72.1716 42.4673 71.8992 44.5988C71.6268 46.7304 72.0996 48.5469 72.9553 48.6563C73.8109 48.7656 74.7254 47.1263 74.9977 44.9948Z" fill="#D8A353"/>
<path d="M38.4379 48.6564C39.2935 48.5471 39.7663 46.7305 39.494 44.5989C39.2216 42.4674 38.3071 40.8281 37.4515 40.9374C36.5959 41.0467 36.123 42.8633 36.3954 44.9949C36.6678 47.1264 37.5822 48.7657 38.4379 48.6564Z" fill="#D8A353"/>
<path d="M39.6614 38.5393C39.7748 39.633 39.8408 40.7203 39.894 41.8067C39.9484 42.8928 39.9919 43.977 40.0338 45.0599C40.0787 46.1425 40.1058 47.2254 40.16 48.3066C40.2138 49.3887 40.2681 50.4679 40.3563 51.564C39.9854 50.5273 39.7262 49.454 39.583 48.3623C39.4253 47.277 39.3281 46.1837 39.2917 45.0876C39.2481 43.9935 39.2622 42.8989 39.3165 41.8064C39.3627 40.7112 39.4779 39.62 39.6614 38.5393ZM71.8418 38.5393C72.0252 39.62 72.1405 40.7112 72.1867 41.8064C72.241 42.8989 72.2551 43.9935 72.2115 45.0876C72.1751 46.1837 72.0779 47.277 71.9202 48.3623C71.777 49.454 71.5178 50.5273 71.1469 51.564C71.2351 50.4679 71.2894 49.3887 71.3432 48.3066C71.3974 47.2254 71.4245 46.1425 71.4693 45.0599C71.5113 43.977 71.5548 42.8928 71.6092 41.8067C71.6624 40.7203 71.7284 39.633 71.8418 38.5393Z" fill="#CCA364"/>
<path d="M61.1284 42.3005C61.234 41.898 61.4648 41.5396 61.7873 41.2767C62.1306 40.9845 62.5676 40.8257 63.0184 40.8293C63.4655 40.8413 63.8946 41.0083 64.2321 41.3019C64.5478 41.5655 64.7848 41.911 64.9172 42.3005C64.5534 42.1167 64.2355 41.9272 63.9179 41.7943C63.6319 41.6599 63.3219 41.5842 63.0062 41.5719C62.6931 41.5714 62.3836 41.6384 62.0988 41.7684C61.762 41.9203 61.4376 42.0982 61.1284 42.3005ZM45.973 42.3005C46.0787 41.898 46.3094 41.5396 46.6319 41.2767C46.9752 40.9845 47.4122 40.8257 47.863 40.8293C48.3102 40.8413 48.7392 41.0083 49.0767 41.3019C49.3924 41.5655 49.6295 41.911 49.7618 42.3005C49.398 42.1167 49.0801 41.9272 48.7625 41.7943C48.4766 41.6599 48.1665 41.5842 47.8508 41.5719C47.5378 41.5714 47.2283 41.6384 46.9435 41.7684C46.6067 41.9203 46.2822 42.0982 45.973 42.3005ZM56.0025 62.2238L55.9429 62.2167C55.6435 62.1793 55.3408 62.2531 55.0922 62.4242C45.0346 69.4434 39.9803 45.7968 39.9803 45.7968C39.6042 59.2903 45.7879 68.4163 51.7602 69.5245C53.3656 69.8225 54.792 68.8774 56.0691 68.8774C57.3327 68.8774 58.8155 69.8031 59.9181 69.5825C66.5805 68.2498 72.6847 56.286 71.5534 43.9803C72.7318 56.7984 58.9889 65.0404 57.5054 62.8451C57.2454 62.4603 56.4635 62.2791 56.0025 62.2238Z" fill="#382810"/>
<path d="M54.3007 56.6881C54.3007 56.6881 53.4984 59.3787 54.3007 60.8416C55.1031 62.3045 57.0993 62.1169 57.5324 60.8415C58.0339 59.3647 57.3095 56.3538 57.3095 56.3538L54.3007 56.6881Z" fill="#382810"/>
<path d="M49.666 55.4656C49.666 55.4656 53.0982 59.7448 56.9316 59.0316C60.765 58.3184 62.5034 54.485 62.5034 54.485L49.666 55.4656Z" fill="#D7A65D"/>
<path d="M49.666 55.4656C49.666 55.4656 54.9258 53.8609 62.5034 54.4849C62.5034 54.4849 57.7785 56.3125 49.666 55.4656Z" fill="#A78044"/>
<path d="M55.7387 50.2932C55.7862 50.6117 55.7679 50.9365 55.6848 51.2475C55.6474 51.4041 55.5992 51.5579 55.5405 51.7078C55.4793 51.8576 55.4096 52.0038 55.3316 52.1456C55.0028 52.7223 54.5484 53.2176 54.002 53.5947C53.4566 53.9742 52.8451 54.2484 52.1988 54.4031C52.0408 54.4423 51.881 54.4748 51.7207 54.5077C51.6159 54.536 51.523 54.5465 51.4228 54.5741C51.2259 54.617 51.0259 54.6682 50.8243 54.7193C50.0162 54.9301 49.1622 55.189 48.2426 55.463L46.8085 55.8841C46.5578 55.9548 46.3066 56.0319 46.0474 56.112C45.9184 56.1541 45.7888 56.1952 45.6579 56.2455C45.5195 56.2897 45.39 56.3583 45.2756 56.448C45.2183 56.2879 45.204 56.1156 45.2341 55.9483C45.2561 55.7869 45.2918 55.6277 45.3408 55.4723C45.4349 55.173 45.5594 54.8842 45.7124 54.6104C46.0091 54.0821 46.3812 53.6 46.8172 53.1793C47.6979 52.3239 48.7867 51.7132 49.9757 51.4075C50.2854 51.3294 50.6002 51.2731 50.9178 51.2389C51.0759 51.2217 51.2448 51.2119 51.3999 51.2058C51.4993 51.2028 51.5991 51.1994 51.7008 51.2026C52.1048 51.2048 52.5086 51.1854 52.9106 51.1444C53.8999 51.0482 54.8607 50.759 55.7387 50.2932Z" fill="#352103"/>
<path d="M55.4056 50.2932C56.2837 50.759 57.2445 51.0482 58.2338 51.1444C58.6357 51.1854 59.0396 51.2048 59.4436 51.2026C59.5453 51.1994 59.6451 51.2028 59.7445 51.2058C59.8995 51.2119 60.0684 51.2216 60.2266 51.2389C60.5441 51.2731 60.8589 51.3294 61.1686 51.4075C62.3577 51.7132 63.4464 52.3239 64.3272 53.1793C64.7631 53.6 65.1353 54.0821 65.4319 54.6104C65.5849 54.8842 65.7095 55.173 65.8036 55.4723C65.8525 55.6276 65.8882 55.7869 65.9103 55.9483C65.9403 56.1156 65.926 56.2879 65.8688 56.448C65.7544 56.3583 65.6249 56.2897 65.4864 56.2454C65.3556 56.1952 65.2259 56.1541 65.097 56.1119C64.8377 56.0318 64.5865 55.9548 64.3359 55.8841L62.9017 55.463C61.9821 55.189 61.1281 54.9301 60.32 54.7193C60.1184 54.6682 59.9185 54.617 59.7215 54.5741C59.6213 54.5465 59.5284 54.536 59.4236 54.5077C59.2634 54.4748 59.1035 54.4422 58.9455 54.4031C58.2993 54.2484 57.6877 53.9742 57.1423 53.5947C56.596 53.2175 56.1416 52.7223 55.8128 52.1456C55.7348 52.0038 55.665 51.8576 55.6038 51.7078C55.5452 51.5579 55.497 51.4041 55.4596 51.2475C55.3765 50.9364 55.3581 50.6116 55.4056 50.2932Z" fill="#352103"/>
<path d="M59.2823 49.8336C58.2698 50.8596 56.9313 51.5006 55.4972 51.6463C55.5417 51.6537 55.5863 51.6574 55.6309 51.6611H55.3634C55.408 51.6574 55.4526 51.6537 55.4972 51.6463C54.0864 51.5055 52.767 50.8838 51.7603 49.8856" fill="#CCA364"/>
<path d="M54.6583 24.513C54.6583 24.513 46.953 23.4035 46.7681 29.691C46.5832 35.9785 42.5764 37.8278 42.0217 38.0127C41.4669 38.1976 36.967 40.9099 39.1245 47.1358C39.1245 47.1358 33.0835 45.3482 36.3506 35.3005C39.6176 25.2527 39.1759 20.3778 47.8674 15.3848C56.559 10.3918 65.9389 20.5063 65.9389 20.5063C65.9389 20.5063 73.4485 19.2999 72.7812 30.8006C72.7812 30.8006 75.4834 34.5477 74.8053 39.3558C74.8053 39.3558 69.0827 37.9511 67.48 34.4991C65.8773 31.0471 69.9457 26.7322 60.8226 24.3898C60.8226 24.3898 55.0956 24.5568 54.6583 24.513Z" fill="#382810"/>
<path d="M51.268 21.3076C45.7818 19.6433 46.9502 28.3176 46.9502 28.3176L46.9559 28.3149C47.8421 24.8 51.6521 24.4069 53.5605 24.4399C53.0058 21.3628 51.268 21.3076 51.268 21.3076ZM59.0349 18.5953C59.6513 19.9515 56.8217 24.4927 56.8217 24.4927C58.6028 24.4544 60.8225 24.3897 60.8225 24.3897C61.0691 20.5678 59.0349 18.5953 59.0349 18.5953ZM68.2812 29.0746C67.9114 24.5746 63.1603 25.1408 63.1603 25.1408L63.1604 25.1425C69.1901 27.5798 66.036 31.3893 67.4799 34.4991C67.9151 35.3745 68.5332 36.1464 69.2923 36.7625C68.6286 36.2424 68.6511 33.574 68.2812 29.0746Z" fill="#352103"/>
<path d="M103.303 99H8.68677C10.1256 90.3634 16.7807 87.5752 16.7807 87.5752L38.4524 80.8308L39.5959 80.4736L45.8458 84.1377L55.0763 96.6648H56.4601L71.7929 80.4736L73.0875 80.8789L81.8682 83.6123L83.568 84.1412L89.3851 85.9509L94.6047 87.5752C101.019 90.5455 103.303 99 103.303 99Z" fill="#484783"/>
<path d="M41.2951 88.4852L54.9646 98.9992L55.7529 96.6649L47.4633 87.9961L45.6261 84.6837L40.2713 80.4753L39.1301 80.8306L36.916 81.5197L36.5356 86.2285L42.9023 86.4861L41.2951 88.4852Z" fill="#3A3969"/>
<path d="M70.2415 88.4852L56.4526 98.9992L55.7837 96.6649L64.0733 87.9961L65.9105 84.6837L71.2653 80.4753L72.4065 80.8306L74.6206 81.5197L75.001 86.2285L68.6343 86.4861L70.2415 88.4852Z" fill="#3A3969"/>
<path d="M66.9124 71.6107L71.9809 75.5607L72.7225 84.7448L66.3561 85.0023L67.9632 87.0017L55.7837 96.665L63.2012 84.1378L65.6762 71.6107H66.9124Z" fill="#484783"/>
<path d="M55.7529 96.6649L52.2171 87.8545C51.2349 85.407 50.8066 82.7725 50.9628 80.14L51.3423 73.7437L48.3355 72.7645L45.2037 74.5104L47.2834 86.3861L55.7529 96.6649Z" fill="#D8A353"/>
<path d="M44.6243 71.6107L39.5558 75.5607L38.8141 84.7448L45.1806 85.0023L43.5735 87.0017L55.753 96.665L48.3355 84.1378L45.8605 71.6107H44.6243Z" fill="#484783"/>
</svg>
